<?xml version="1.0" encoding="UTF-8" standalone="no"?>
<svg
   xmlns:dc="http://purl.org/dc/elements/1.1/"
   xmlns:cc="http://creativecommons.org/ns#"
   xmlns:rdf="http://www.w3.org/1999/02/22-rdf-syntax-ns#"
   xmlns:svg="http://www.w3.org/2000/svg"
   xmlns="http://www.w3.org/2000/svg"
   viewBox="0 0 913.47998 489.56"
   height="489.56"
   width="913.47998"
   xml:space="preserve"
   id="svg2"
   version="1.1"><metadata
     id="metadata8"><rdf:RDF><cc:Work
         rdf:about=""><dc:format>image/svg+xml</dc:format><dc:type
           rdf:resource="http://purl.org/dc/dcmitype/StillImage" /></cc:Work></rdf:RDF></metadata><defs
     id="defs6"><clipPath
       id="clipPath102"
       clipPathUnits="userSpaceOnUse"><path
         id="path100"
         d="m 406.98,321.25 h 5486.67 v 3100 c 0,0 0,-770 -960,-940 -616.66,-110 -1286.67,-799.99 -1920,-973.33 -633.33,-173.34 -773.32,-469.99 -946.66,-480 -173.34,-10.01 -313.34,-383.342 -473.34,-353.342 -160,30 -166.67,-173.316 -486.67,-186.656 -319.992,-13.344 -700,-166.672 -700,-166.672 z" /></clipPath><linearGradient
       id="linearGradient108"
       spreadMethod="pad"
       gradientTransform="matrix(5486.67,0,0,-5486.67,406.982,1871.25)"
       gradientUnits="userSpaceOnUse"
       y2="0"
       x2="1"
       y1="0"
       x1="0"><stop
         id="stop104"
         offset="0"
         style="stop-opacity:1;stop-color:#638638" /><stop
         id="stop106"
         offset="1"
         style="stop-opacity:1;stop-color:#85c646" /></linearGradient></defs><g
     transform="matrix(1.3333333,0,0,-1.3333333,0,489.56)"
     id="g10"><g
       transform="scale(0.1)"
       id="g12"><path
         id="path14"
         style="fill:none;stroke:#d9dcdb;stroke-width:5;stroke-linecap:butt;stroke-linejoin:miter;stroke-miterlimit:10;stroke-dasharray:none;stroke-opacity:1"
         d="M 72.8125,321.25 H 6851.15" /><path
         id="path16"
         style="fill:none;stroke:#d9dcdb;stroke-width:5;stroke-linecap:butt;stroke-linejoin:miter;stroke-miterlimit:10;stroke-dasharray:none;stroke-opacity:1"
         d="M 72.8125,560.84 H 6851.15" /><path
         id="path18"
         style="fill:none;stroke:#d9dcdb;stroke-width:5;stroke-linecap:butt;stroke-linejoin:miter;stroke-miterlimit:10;stroke-dasharray:none;stroke-opacity:1"
         d="M 72.8125,794.172 H 6851.15" /><path
         id="path20"
         style="fill:none;stroke:#d9dcdb;stroke-width:5;stroke-linecap:butt;stroke-linejoin:miter;stroke-miterlimit:10;stroke-dasharray:none;stroke-opacity:1"
         d="M 72.8125,1034.17 H 6851.15" /><path
         id="path22"
         style="fill:none;stroke:#d9dcdb;stroke-width:5;stroke-linecap:butt;stroke-linejoin:miter;stroke-miterlimit:10;stroke-dasharray:none;stroke-opacity:1"
         d="M 72.8125,1277.5 H 6851.15" /><path
         id="path24"
         style="fill:none;stroke:#d9dcdb;stroke-width:5;stroke-linecap:butt;stroke-linejoin:miter;stroke-miterlimit:10;stroke-dasharray:none;stroke-opacity:1"
         d="M 72.8125,1515.84 H 6851.15" /><path
         id="path26"
         style="fill:none;stroke:#d9dcdb;stroke-width:5;stroke-linecap:butt;stroke-linejoin:miter;stroke-miterlimit:10;stroke-dasharray:none;stroke-opacity:1"
         d="M 72.8125,1757.5 H 6851.15" /><path
         id="path28"
         style="fill:none;stroke:#d9dcdb;stroke-width:5;stroke-linecap:butt;stroke-linejoin:miter;stroke-miterlimit:10;stroke-dasharray:none;stroke-opacity:1"
         d="M 72.8125,1997.5 H 6851.15" /><path
         id="path30"
         style="fill:none;stroke:#d9dcdb;stroke-width:5;stroke-linecap:butt;stroke-linejoin:miter;stroke-miterlimit:10;stroke-dasharray:none;stroke-opacity:1"
         d="M 72.8125,2237.5 H 6851.15" /><path
         id="path32"
         style="fill:none;stroke:#d9dcdb;stroke-width:5;stroke-linecap:butt;stroke-linejoin:miter;stroke-miterlimit:10;stroke-dasharray:none;stroke-opacity:1"
         d="M 72.8125,2471.25 H 6851.15" /><path
         id="path34"
         style="fill:none;stroke:#d9dcdb;stroke-width:5;stroke-linecap:butt;stroke-linejoin:miter;stroke-miterlimit:10;stroke-dasharray:none;stroke-opacity:1"
         d="M 72.8125,2710.84 H 6851.15" /><path
         id="path36"
         style="fill:none;stroke:#d9dcdb;stroke-width:5;stroke-linecap:butt;stroke-linejoin:miter;stroke-miterlimit:10;stroke-dasharray:none;stroke-opacity:1"
         d="M 72.8125,2950.84 H 6851.15" /><path
         id="path38"
         style="fill:none;stroke:#d9dcdb;stroke-width:5;stroke-linecap:butt;stroke-linejoin:miter;stroke-miterlimit:10;stroke-dasharray:none;stroke-opacity:1"
         d="M 72.8125,3190.84 H 6851.15" /><path
         id="path40"
         style="fill:none;stroke:#d9dcdb;stroke-width:5;stroke-linecap:butt;stroke-linejoin:miter;stroke-miterlimit:10;stroke-dasharray:none;stroke-opacity:1"
         d="M 72.8125,3431.25 H 6851.15" /><path
         id="path42"
         style="fill:none;stroke:#d9dcdb;stroke-width:5;stroke-linecap:butt;stroke-linejoin:miter;stroke-miterlimit:10;stroke-dasharray:none;stroke-opacity:1"
         d="M 3743.65,3671.67 V 0" /><path
         id="path44"
         style="fill:none;stroke:#d9dcdb;stroke-width:5;stroke-linecap:butt;stroke-linejoin:miter;stroke-miterlimit:10;stroke-dasharray:none;stroke-opacity:1"
         d="M 3983.24,3671.67 V 0" /><path
         id="path46"
         style="fill:none;stroke:#d9dcdb;stroke-width:5;stroke-linecap:butt;stroke-linejoin:miter;stroke-miterlimit:10;stroke-dasharray:none;stroke-opacity:1"
         d="M 4216.57,3671.67 V 0" /><path
         id="path48"
         style="fill:none;stroke:#d9dcdb;stroke-width:5;stroke-linecap:butt;stroke-linejoin:miter;stroke-miterlimit:10;stroke-dasharray:none;stroke-opacity:1"
         d="M 4456.57,3671.67 V 0" /><path
         id="path50"
         style="fill:none;stroke:#d9dcdb;stroke-width:5;stroke-linecap:butt;stroke-linejoin:miter;stroke-miterlimit:10;stroke-dasharray:none;stroke-opacity:1"
         d="M 4699.9,3671.67 V 0" /><path
         id="path52"
         style="fill:none;stroke:#d9dcdb;stroke-width:5;stroke-linecap:butt;stroke-linejoin:miter;stroke-miterlimit:10;stroke-dasharray:none;stroke-opacity:1"
         d="M 4938.24,3671.67 V 0" /><path
         id="path54"
         style="fill:none;stroke:#d9dcdb;stroke-width:5;stroke-linecap:butt;stroke-linejoin:miter;stroke-miterlimit:10;stroke-dasharray:none;stroke-opacity:1"
         d="M 5179.9,3671.67 V 0" /><path
         id="path56"
         style="fill:none;stroke:#d9dcdb;stroke-width:5;stroke-linecap:butt;stroke-linejoin:miter;stroke-miterlimit:10;stroke-dasharray:none;stroke-opacity:1"
         d="M 5419.91,3671.67 V 0" /><path
         id="path58"
         style="fill:none;stroke:#d9dcdb;stroke-width:5;stroke-linecap:butt;stroke-linejoin:miter;stroke-miterlimit:10;stroke-dasharray:none;stroke-opacity:1"
         d="M 5659.91,3671.67 V 0" /><path
         id="path60"
         style="fill:none;stroke:#d9dcdb;stroke-width:5;stroke-linecap:butt;stroke-linejoin:miter;stroke-miterlimit:10;stroke-dasharray:none;stroke-opacity:1"
         d="M 5893.65,3671.67 V 0" /><path
         id="path62"
         style="fill:none;stroke:#d9dcdb;stroke-width:5;stroke-linecap:butt;stroke-linejoin:miter;stroke-miterlimit:10;stroke-dasharray:none;stroke-opacity:1"
         d="M 6133.24,3671.67 V 0" /><path
         id="path64"
         style="fill:none;stroke:#d9dcdb;stroke-width:5;stroke-linecap:butt;stroke-linejoin:miter;stroke-miterlimit:10;stroke-dasharray:none;stroke-opacity:1"
         d="M 6373.24,3671.67 V 0" /><path
         id="path66"
         style="fill:none;stroke:#d9dcdb;stroke-width:5;stroke-linecap:butt;stroke-linejoin:miter;stroke-miterlimit:10;stroke-dasharray:none;stroke-opacity:1"
         d="M 6613.24,3671.67 V 0" /><path
         id="path68"
         style="fill:none;stroke:#d9dcdb;stroke-width:5;stroke-linecap:butt;stroke-linejoin:miter;stroke-miterlimit:10;stroke-dasharray:none;stroke-opacity:1"
         d="M 391.148,3671.67 V 0" /><path
         id="path70"
         style="fill:none;stroke:#d9dcdb;stroke-width:5;stroke-linecap:butt;stroke-linejoin:miter;stroke-miterlimit:10;stroke-dasharray:none;stroke-opacity:1"
         d="M 630.738,3671.67 V 0" /><path
         id="path72"
         style="fill:none;stroke:#d9dcdb;stroke-width:5;stroke-linecap:butt;stroke-linejoin:miter;stroke-miterlimit:10;stroke-dasharray:none;stroke-opacity:1"
         d="M 864.066,3671.67 V 0" /><path
         id="path74"
         style="fill:none;stroke:#d9dcdb;stroke-width:5;stroke-linecap:butt;stroke-linejoin:miter;stroke-miterlimit:10;stroke-dasharray:none;stroke-opacity:1"
         d="M 1104.07,3671.67 V 0" /><path
         id="path76"
         style="fill:none;stroke:#d9dcdb;stroke-width:5;stroke-linecap:butt;stroke-linejoin:miter;stroke-miterlimit:10;stroke-dasharray:none;stroke-opacity:1"
         d="M 1347.4,3671.67 V 0" /><path
         id="path78"
         style="fill:none;stroke:#d9dcdb;stroke-width:5;stroke-linecap:butt;stroke-linejoin:miter;stroke-miterlimit:10;stroke-dasharray:none;stroke-opacity:1"
         d="M 1585.74,3671.67 V 0" /><path
         id="path80"
         style="fill:none;stroke:#d9dcdb;stroke-width:5;stroke-linecap:butt;stroke-linejoin:miter;stroke-miterlimit:10;stroke-dasharray:none;stroke-opacity:1"
         d="M 1827.4,3671.67 V 0" /><path
         id="path82"
         style="fill:none;stroke:#d9dcdb;stroke-width:5;stroke-linecap:butt;stroke-linejoin:miter;stroke-miterlimit:10;stroke-dasharray:none;stroke-opacity:1"
         d="M 2067.41,3671.67 V 0" /><path
         id="path84"
         style="fill:none;stroke:#d9dcdb;stroke-width:5;stroke-linecap:butt;stroke-linejoin:miter;stroke-miterlimit:10;stroke-dasharray:none;stroke-opacity:1"
         d="M 2307.41,3671.67 V 0" /><path
         id="path86"
         style="fill:none;stroke:#d9dcdb;stroke-width:5;stroke-linecap:butt;stroke-linejoin:miter;stroke-miterlimit:10;stroke-dasharray:none;stroke-opacity:1"
         d="M 2541.15,3671.67 V 0" /><path
         id="path88"
         style="fill:none;stroke:#d9dcdb;stroke-width:5;stroke-linecap:butt;stroke-linejoin:miter;stroke-miterlimit:10;stroke-dasharray:none;stroke-opacity:1"
         d="M 2780.74,3671.67 V 0" /><path
         id="path90"
         style="fill:none;stroke:#d9dcdb;stroke-width:5;stroke-linecap:butt;stroke-linejoin:miter;stroke-miterlimit:10;stroke-dasharray:none;stroke-opacity:1"
         d="M 3020.74,3671.67 V 0" /><path
         id="path92"
         style="fill:none;stroke:#d9dcdb;stroke-width:5;stroke-linecap:butt;stroke-linejoin:miter;stroke-miterlimit:10;stroke-dasharray:none;stroke-opacity:1"
         d="M 3260.74,3671.67 V 0" /><path
         id="path94"
         style="fill:none;stroke:#d9dcdb;stroke-width:5;stroke-linecap:butt;stroke-linejoin:miter;stroke-miterlimit:10;stroke-dasharray:none;stroke-opacity:1"
         d="M 3501.15,3671.67 V 0" /><g
         id="g96"><g
           clip-path="url(#clipPath102)"
           id="g98"><path
             id="path110"
             style="fill:url(#linearGradient108);fill-opacity:1;fill-rule:nonzero;stroke:none"
             d="m 406.98,321.25 h 5486.67 v 3100 c 0,0 0,-770 -960,-940 -616.66,-110 -1286.67,-799.99 -1920,-973.33 -633.33,-173.34 -773.32,-469.99 -946.66,-480 -173.34,-10.01 -313.34,-383.342 -473.34,-353.342 -160,30 -166.67,-173.316 -486.67,-186.656 -319.992,-13.344 -700,-166.672 -700,-166.672" /></g></g><path
         id="path112"
         style="fill:#ffffff;fill-opacity:1;fill-rule:nonzero;stroke:none"
         d="m 675.316,395.84 c 0,-21.629 -17.539,-39.168 -39.168,-39.168 -21.632,0 -39.171,17.539 -39.171,39.168 0,21.629 17.539,39.172 39.171,39.172 21.629,0 39.168,-17.543 39.168,-39.172" /><path
         id="path114"
         style="fill:none;stroke:#658938;stroke-width:20;stroke-linecap:butt;stroke-linejoin:miter;stroke-miterlimit:10;stroke-dasharray:none;stroke-opacity:1"
         d="m 675.316,395.84 c 0,-21.629 -17.539,-39.168 -39.168,-39.168 -21.632,0 -39.171,17.539 -39.171,39.168 0,21.629 17.539,39.172 39.171,39.172 21.629,0 39.168,-17.543 39.168,-39.172 z" /><path
         id="path116"
         style="fill:#ffffff;fill-opacity:1;fill-rule:nonzero;stroke:none"
         d="m 1145.32,494.18 c 0,-21.629 -17.54,-39.168 -39.17,-39.168 -21.63,0 -39.17,17.539 -39.17,39.168 0,21.629 17.54,39.172 39.17,39.172 21.63,0 39.17,-17.543 39.17,-39.172" /><path
         id="path118"
         style="fill:none;stroke:#678f3a;stroke-width:20;stroke-linecap:butt;stroke-linejoin:miter;stroke-miterlimit:10;stroke-dasharray:none;stroke-opacity:1"
         d="m 1145.32,494.18 c 0,-21.629 -17.54,-39.168 -39.17,-39.168 -21.63,0 -39.17,17.539 -39.17,39.168 0,21.629 17.54,39.172 39.17,39.172 21.63,0 39.17,-17.543 39.17,-39.172 z" /><path
         id="path120"
         style="fill:#ffffff;fill-opacity:1;fill-rule:nonzero;stroke:none"
         d="m 1620.61,675.359 c 0,-21.629 -17.54,-39.168 -39.17,-39.168 -21.63,0 -39.17,17.539 -39.17,39.168 0,21.629 17.54,39.172 39.17,39.172 21.63,0 39.17,-17.543 39.17,-39.172" /><path
         id="path122"
         style="fill:none;stroke:#6a943b;stroke-width:20;stroke-linecap:butt;stroke-linejoin:miter;stroke-miterlimit:10;stroke-dasharray:none;stroke-opacity:1"
         d="m 1620.61,675.359 c 0,-21.629 -17.54,-39.168 -39.17,-39.168 -21.63,0 -39.17,17.539 -39.17,39.168 0,21.629 17.54,39.172 39.17,39.172 21.63,0 39.17,-17.543 39.17,-39.172 z" /><path
         id="path124"
         style="fill:#ffffff;fill-opacity:1;fill-rule:nonzero;stroke:none"
         d="m 2105.61,1030.36 c 0,-21.63 -17.54,-39.169 -39.17,-39.169 -21.63,0 -39.17,17.539 -39.17,39.169 0,21.63 17.54,39.17 39.17,39.17 21.63,0 39.17,-17.54 39.17,-39.17" /><path
         id="path126"
         style="fill:none;stroke:#6d9a3d;stroke-width:20;stroke-linecap:butt;stroke-linejoin:miter;stroke-miterlimit:10;stroke-dasharray:none;stroke-opacity:1"
         d="m 2105.61,1030.36 c 0,-21.63 -17.54,-39.169 -39.17,-39.169 -21.63,0 -39.17,17.539 -39.17,39.169 0,21.63 17.54,39.17 39.17,39.17 21.63,0 39.17,-17.54 39.17,-39.17 z" /><path
         id="path128"
         style="fill:#ffffff;fill-opacity:1;fill-rule:nonzero;stroke:none"
         d="m 3060.32,1505.84 c 0,-21.63 -17.54,-39.17 -39.17,-39.17 -21.63,0 -39.17,17.54 -39.17,39.17 0,21.63 17.54,39.17 39.17,39.17 21.63,0 39.17,-17.54 39.17,-39.17" /><path
         id="path130"
         style="fill:none;stroke:#73a63e;stroke-width:20;stroke-linecap:butt;stroke-linejoin:miter;stroke-miterlimit:10;stroke-dasharray:none;stroke-opacity:1"
         d="m 3060.32,1505.84 c 0,-21.63 -17.54,-39.17 -39.17,-39.17 -21.63,0 -39.17,17.54 -39.17,39.17 0,21.63 17.54,39.17 39.17,39.17 21.63,0 39.17,-17.54 39.17,-39.17 z" /><path
         id="path132"
         style="fill:#ffffff;fill-opacity:1;fill-rule:nonzero;stroke:none"
         d="m 4966.98,2481.25 c 0,-21.63 -17.54,-39.17 -39.17,-39.17 -21.63,0 -39.17,17.54 -39.17,39.17 0,21.63 17.54,39.17 39.17,39.17 21.63,0 39.17,-17.54 39.17,-39.17" /><path
         id="path134"
         style="fill:none;stroke:#80bc44;stroke-width:20;stroke-linecap:butt;stroke-linejoin:miter;stroke-miterlimit:10;stroke-dasharray:none;stroke-opacity:1"
         d="m 4966.98,2481.25 c 0,-21.63 -17.54,-39.17 -39.17,-39.17 -21.63,0 -39.17,17.54 -39.17,39.17 0,21.63 17.54,39.17 39.17,39.17 21.63,0 39.17,-17.54 39.17,-39.17 z" /><path
         id="path136"
         style="fill:#41474c;fill-opacity:1;fill-rule:nonzero;stroke:none"
         d="m 6157.07,3409.86 c 0,1.88 -0.58,3.4 -1.74,4.55 -1.16,1.16 -3.41,2.31 -6.74,3.46 v -15.19 c 5.65,0.78 8.48,3.18 8.48,7.18 z m -21.37,24.26 c 0,-1.98 0.58,-3.57 1.76,-4.76 1.17,-1.2 3.2,-2.33 6.09,-3.4 v 15.11 c -2.58,-0.41 -4.53,-1.23 -5.86,-2.44 -1.33,-1.21 -1.99,-2.71 -1.99,-4.51 z m 28.01,-23.75 c 0,-3.54 -1.33,-6.46 -3.99,-8.77 -2.65,-2.3 -6.37,-3.75 -11.13,-4.35 v -9.07 h -5.04 v 8.71 c -2.92,0 -5.74,0.24 -8.48,0.69 -2.73,0.45 -4.97,1.09 -6.72,1.89 v 6.1 c 2.16,-0.96 4.66,-1.76 7.48,-2.37 2.83,-0.61 5.41,-0.91 7.72,-0.91 v 17.18 c -5.34,1.7 -9.08,3.66 -11.23,5.9 -2.15,2.24 -3.22,5.13 -3.22,8.67 0,3.42 1.32,6.21 3.96,8.4 2.65,2.19 6.14,3.52 10.49,3.99 v 7.11 h 5.04 v -7.04 c 4.79,-0.13 9.41,-1.09 13.87,-2.89 l -2.04,-5.11 c -3.87,1.54 -7.82,2.44 -11.83,2.73 v -16.95 c 4.09,-1.31 7.15,-2.58 9.18,-3.81 2.03,-1.24 3.52,-2.66 4.49,-4.26 0.97,-1.6 1.45,-3.55 1.45,-5.84" /><path
         id="path138"
         style="fill:#41474c;fill-opacity:1;fill-rule:nonzero;stroke:none"
         d="m 6217.69,3392.83 h -6.33 v 40.71 c 0,3.38 0.11,6.58 0.31,9.6 -0.54,-0.54 -1.16,-1.11 -1.83,-1.71 -0.67,-0.61 -3.78,-3.14 -9.3,-7.62 l -3.44,4.45 15.12,11.68 h 5.47 v -57.11" /><path
         id="path140"
         style="fill:#41474c;fill-opacity:1;fill-rule:nonzero;stroke:none"
         d="m 6264.96,3411.86 v 18.98 c 0,3.73 0.12,7.93 0.39,12.62 h -0.32 c -1.25,-2.5 -2.42,-4.57 -3.51,-6.21 l -17.85,-25.39 z m 14.68,-5.9 h -8.47 v -13.13 h -6.21 v 13.13 h -27.78 v 5.66 l 27.11,38.63 h 6.88 v -38.39 h 8.47 v -5.9" /><path
         id="path142"
         style="fill:#41474c;fill-opacity:1;fill-rule:nonzero;stroke:none"
         d="m 6312.57,3421.46 c 0,-8.3 0.98,-14.35 2.93,-18.14 1.96,-3.79 5.07,-5.68 9.34,-5.68 4.33,0 7.45,1.91 9.39,5.76 1.95,3.84 2.91,9.86 2.91,18.06 0,8.21 -0.96,14.22 -2.91,18.03 -1.94,3.81 -5.06,5.72 -9.39,5.72 -4.27,0 -7.38,-1.87 -9.34,-5.64 -1.95,-3.77 -2.93,-9.8 -2.93,-18.11 z m 31.21,0 c 0,-9.86 -1.55,-17.24 -4.66,-22.1 -3.12,-4.87 -7.87,-7.31 -14.28,-7.31 -6.14,0 -10.82,2.5 -14.02,7.48 -3.21,4.99 -4.81,12.3 -4.81,21.93 0,9.95 1.55,17.33 4.65,22.15 3.09,4.82 7.82,7.23 14.18,7.23 6.2,0 10.91,-2.52 14.12,-7.54 3.21,-5.02 4.82,-12.3 4.82,-21.84" /><path
         id="path144"
         style="fill:#41474c;fill-opacity:1;fill-rule:nonzero;stroke:none"
         d="m 6358.32,3421.46 c 0,-8.3 0.97,-14.35 2.93,-18.14 1.95,-3.79 5.06,-5.68 9.33,-5.68 4.33,0 7.45,1.91 9.4,5.76 1.94,3.84 2.91,9.86 2.91,18.06 0,8.21 -0.97,14.22 -2.91,18.03 -1.95,3.81 -5.07,5.72 -9.4,5.72 -4.27,0 -7.38,-1.87 -9.33,-5.64 -1.96,-3.77 -2.93,-9.8 -2.93,-18.11 z m 31.21,0 c 0,-9.86 -1.56,-17.24 -4.67,-22.1 -3.12,-4.87 -7.87,-7.31 -14.28,-7.31 -6.14,0 -10.82,2.5 -14.02,7.48 -3.21,4.99 -4.81,12.3 -4.81,21.93 0,9.95 1.56,17.33 4.65,22.15 3.1,4.82 7.82,7.23 14.18,7.23 6.2,0 10.91,-2.52 14.12,-7.54 3.22,-5.02 4.83,-12.3 4.83,-21.84" /><path
         id="path146"
         style="fill:#41474c;fill-opacity:1;fill-rule:nonzero;stroke:none"
         d="m 6404.06,3421.46 c 0,-8.3 0.97,-14.35 2.93,-18.14 1.95,-3.79 5.07,-5.68 9.33,-5.68 4.33,0 7.45,1.91 9.4,5.76 1.94,3.84 2.91,9.86 2.91,18.06 0,8.21 -0.97,14.22 -2.91,18.03 -1.95,3.81 -5.07,5.72 -9.4,5.72 -4.26,0 -7.38,-1.87 -9.33,-5.64 -1.96,-3.77 -2.93,-9.8 -2.93,-18.11 z m 31.21,0 c 0,-9.86 -1.55,-17.24 -4.67,-22.1 -3.11,-4.87 -7.87,-7.31 -14.28,-7.31 -6.14,0 -10.82,2.5 -14.02,7.48 -3.2,4.99 -4.8,12.3 -4.8,21.93 0,9.95 1.55,17.33 4.64,22.15 3.1,4.82 7.83,7.23 14.18,7.23 6.2,0 10.91,-2.52 14.12,-7.54 3.22,-5.02 4.83,-12.3 4.83,-21.84" /><path
         id="path148"
         style="fill:#41474c;fill-opacity:1;fill-rule:nonzero;stroke:none"
         d="m 6165.52,2931.13 c 0,2.34 -0.72,4.23 -2.17,5.68 -1.45,1.45 -4.25,2.89 -8.42,4.32 v -18.99 c 7.06,0.97 10.59,3.97 10.59,8.99 z m -26.71,30.32 c 0,-2.48 0.74,-4.46 2.2,-5.96 1.47,-1.5 4,-2.92 7.62,-4.25 v 18.9 c -3.22,-0.53 -5.67,-1.54 -7.33,-3.05 -1.66,-1.52 -2.49,-3.4 -2.49,-5.64 z m 35.01,-29.69 c 0,-4.43 -1.66,-8.08 -4.98,-10.96 -3.32,-2.89 -7.96,-4.7 -13.91,-5.45 v -11.33 h -6.3 v 10.89 c -3.64,0 -7.18,0.29 -10.6,0.86 -3.42,0.57 -6.22,1.36 -8.4,2.37 v 7.61 c 2.71,-1.2 5.82,-2.18 9.35,-2.95 3.53,-0.77 6.75,-1.15 9.65,-1.15 v 21.49 c -6.67,2.11 -11.35,4.57 -14.05,7.37 -2.67,2.79 -4.02,6.41 -4.02,10.84 0,4.26 1.65,7.76 4.96,10.5 3.3,2.73 7.67,4.39 13.11,4.97 v 8.89 h 6.3 v -8.78 c 5.98,-0.17 11.76,-1.37 17.33,-3.62 l -2.54,-6.4 c -4.85,1.92 -9.78,3.07 -14.79,3.42 v -21.19 c 5.1,-1.62 8.93,-3.21 11.47,-4.76 2.54,-1.55 4.42,-3.32 5.62,-5.32 1.2,-2.01 1.8,-4.43 1.8,-7.3" /><path
         id="path150"
         style="fill:#41474c;fill-opacity:1;fill-rule:nonzero;stroke:none"
         d="m 6241.3,2909.84 h -7.91 v 50.87 c 0,4.24 0.13,8.24 0.39,12.02 -0.68,-0.69 -1.44,-1.41 -2.29,-2.16 -0.85,-0.74 -4.72,-3.91 -11.62,-9.52 l -4.3,5.57 18.9,14.6 h 6.83 v -71.38" /><path
         id="path152"
         style="fill:#41474c;fill-opacity:1;fill-rule:nonzero;stroke:none"
         d="m 6315.38,2909.84 h -46.93 v 6.98 l 18.8,18.89 c 5.73,5.8 9.5,9.93 11.33,12.4 1.83,2.48 3.19,4.89 4.1,7.23 0.91,2.35 1.37,4.87 1.37,7.57 0,3.81 -1.15,6.82 -3.47,9.06 -2.31,2.23 -5.52,3.34 -9.62,3.34 -2.96,0 -5.77,-0.49 -8.43,-1.46 -2.64,-0.98 -5.6,-2.75 -8.85,-5.33 l -4.3,5.52 c 6.57,5.47 13.74,8.21 21.48,8.21 6.71,0 11.97,-1.72 15.78,-5.16 3.8,-3.43 5.71,-8.04 5.71,-13.84 0,-4.52 -1.27,-9 -3.81,-13.43 -2.54,-4.43 -7.29,-10.02 -14.26,-16.79 l -15.62,-15.29 v -0.38 h 36.72 v -7.52" /><path
         id="path154"
         style="fill:#41474c;fill-opacity:1;fill-rule:nonzero;stroke:none"
         d="m 6359.91,2945.63 c 0,-10.39 1.22,-17.95 3.66,-22.68 2.44,-4.74 6.33,-7.11 11.67,-7.11 5.4,0 9.32,2.4 11.75,7.2 2.42,4.8 3.63,12.33 3.63,22.59 0,10.25 -1.21,17.76 -3.63,22.53 -2.43,4.77 -6.35,7.15 -11.75,7.15 -5.34,0 -9.23,-2.35 -11.67,-7.05 -2.44,-4.71 -3.66,-12.25 -3.66,-22.63 z m 39.01,0 c 0,-12.34 -1.94,-21.55 -5.84,-27.64 -3.89,-6.09 -9.83,-9.13 -17.84,-9.13 -7.69,0 -13.53,3.11 -17.53,9.35 -4,6.23 -6.01,15.37 -6.01,27.42 0,12.43 1.94,21.66 5.81,27.68 3.88,6.02 9.79,9.03 17.73,9.03 7.74,0 13.63,-3.14 17.65,-9.42 4.02,-6.28 6.03,-15.38 6.03,-27.29" /><path
         id="path156"
         style="fill:#41474c;fill-opacity:1;fill-rule:nonzero;stroke:none"
         d="m 6417.08,2945.63 c 0,-10.39 1.23,-17.95 3.67,-22.68 2.44,-4.74 6.33,-7.11 11.67,-7.11 5.4,0 9.31,2.4 11.74,7.2 2.43,4.8 3.64,12.33 3.64,22.59 0,10.25 -1.21,17.76 -3.64,22.53 -2.43,4.77 -6.34,7.15 -11.74,7.15 -5.34,0 -9.23,-2.35 -11.67,-7.05 -2.44,-4.71 -3.67,-12.25 -3.67,-22.63 z m 39.02,0 c 0,-12.34 -1.94,-21.55 -5.83,-27.64 -3.9,-6.09 -9.85,-9.13 -17.85,-9.13 -7.69,0 -13.53,3.11 -17.53,9.35 -4.01,6.23 -6.01,15.37 -6.01,27.42 0,12.43 1.94,21.66 5.81,27.68 3.88,6.02 9.79,9.03 17.73,9.03 7.74,0 13.63,-3.14 17.65,-9.42 4.02,-6.28 6.03,-15.38 6.03,-27.29" /><path
         id="path158"
         style="fill:#41474c;fill-opacity:1;fill-rule:nonzero;stroke:none"
         d="m 6474.26,2945.63 c 0,-10.39 1.22,-17.95 3.66,-22.68 2.45,-4.74 6.33,-7.11 11.67,-7.11 5.41,0 9.32,2.4 11.75,7.2 2.42,4.8 3.64,12.33 3.64,22.59 0,10.25 -1.22,17.76 -3.64,22.53 -2.43,4.77 -6.34,7.15 -11.75,7.15 -5.34,0 -9.22,-2.35 -11.67,-7.05 -2.44,-4.71 -3.66,-12.25 -3.66,-22.63 z m 39.02,0 c 0,-12.34 -1.95,-21.55 -5.84,-27.64 -3.89,-6.09 -9.84,-9.13 -17.85,-9.13 -7.68,0 -13.52,3.11 -17.52,9.35 -4.01,6.23 -6.01,15.37 -6.01,27.42 0,12.43 1.93,21.66 5.81,27.68 3.88,6.02 9.79,9.03 17.72,9.03 7.75,0 13.64,-3.14 17.65,-9.42 4.02,-6.28 6.04,-15.38 6.04,-27.29" /><path
         id="path160"
         style="fill:#41474c;fill-opacity:1;fill-rule:nonzero;stroke:none"
         d="m 6173.98,2452.38 c 0,2.81 -0.87,5.09 -2.61,6.82 -1.74,1.74 -5.11,3.47 -10.11,5.19 v -22.79 c 8.48,1.17 12.72,4.76 12.72,10.78 z m -32.05,36.38 c 0,-2.96 0.88,-5.35 2.64,-7.14 1.75,-1.8 4.8,-3.5 9.14,-5.1 v 22.67 c -3.87,-0.62 -6.8,-1.84 -8.79,-3.66 -2,-1.81 -2.99,-4.07 -2.99,-6.77 z m 42.01,-35.62 c 0,-5.31 -1.99,-9.7 -5.98,-13.15 -3.98,-3.46 -9.55,-5.64 -16.7,-6.54 v -13.59 h -7.55 v 13.06 c -4.38,0 -8.62,0.35 -12.72,1.03 -4.1,0.68 -7.46,1.63 -10.08,2.84 v 9.14 c 3.25,-1.44 6.99,-2.62 11.22,-3.54 4.24,-0.92 8.1,-1.38 11.58,-1.38 v 25.78 c -8.01,2.54 -13.63,5.49 -16.85,8.85 -3.22,3.36 -4.83,7.7 -4.83,13.01 0,5.11 1.98,9.31 5.94,12.6 3.97,3.28 9.21,5.27 15.74,5.97 v 10.67 h 7.55 v -10.55 c 7.19,-0.2 14.13,-1.64 20.81,-4.34 l -3.05,-7.67 c -5.82,2.3 -11.74,3.67 -17.76,4.1 V 2474 c 6.14,-1.95 10.73,-3.86 13.77,-5.71 3.05,-1.86 5.3,-3.99 6.74,-6.39 1.45,-2.4 2.17,-5.32 2.17,-8.76" /><path
         id="path162"
         style="fill:#41474c;fill-opacity:1;fill-rule:nonzero;stroke:none"
         d="m 6264.92,2426.83 h -9.5 v 61.06 c 0,5.07 0.16,9.88 0.47,14.41 -0.82,-0.82 -1.73,-1.68 -2.75,-2.58 -1.02,-0.9 -5.66,-4.71 -13.95,-11.42 l -5.15,6.68 22.67,17.52 h 8.21 v -85.67" /><path
         id="path164"
         style="fill:#41474c;fill-opacity:1;fill-rule:nonzero;stroke:none"
         d="m 6307.46,2469.78 c 0,-12.46 1.46,-21.53 4.39,-27.22 2.93,-5.68 7.6,-8.52 14,-8.52 6.49,0 11.19,2.88 14.1,8.64 2.91,5.76 4.36,14.8 4.36,27.1 0,12.31 -1.45,21.32 -4.36,27.04 -2.91,5.72 -7.61,8.59 -14.1,8.59 -6.4,0 -11.07,-2.83 -14,-8.47 -2.93,-5.65 -4.39,-14.7 -4.39,-27.16 z m 46.81,0 c 0,-14.8 -2.33,-25.86 -7,-33.16 -4.67,-7.31 -11.81,-10.96 -21.42,-10.96 -9.21,0 -16.23,3.74 -21.03,11.22 -4.81,7.48 -7.21,18.45 -7.21,32.9 0,14.92 2.33,26 6.97,33.22 4.65,7.23 11.74,10.84 21.27,10.84 9.3,0 16.36,-3.77 21.19,-11.31 4.82,-7.53 7.23,-18.45 7.23,-32.75" /><path
         id="path166"
         style="fill:#41474c;fill-opacity:1;fill-rule:nonzero;stroke:none"
         d="m 6407.24,2469.78 c 0,-12.46 1.47,-21.53 4.4,-27.22 2.93,-5.68 7.59,-8.52 14,-8.52 6.48,0 11.18,2.88 14.09,8.64 2.91,5.76 4.37,14.8 4.37,27.1 0,12.31 -1.46,21.32 -4.37,27.04 -2.91,5.72 -7.61,8.59 -14.09,8.59 -6.41,0 -11.07,-2.83 -14,-8.47 -2.93,-5.65 -4.4,-14.7 -4.4,-27.16 z m 46.82,0 c 0,-14.8 -2.34,-25.86 -7,-33.16 -4.67,-7.31 -11.81,-10.96 -21.42,-10.96 -9.22,0 -16.23,3.74 -21.04,11.22 -4.8,7.48 -7.2,18.45 -7.2,32.9 0,14.92 2.32,26 6.97,33.22 4.65,7.23 11.74,10.84 21.27,10.84 9.3,0 16.36,-3.77 21.18,-11.31 4.83,-7.53 7.24,-18.45 7.24,-32.75" /><path
         id="path168"
         style="fill:#41474c;fill-opacity:1;fill-rule:nonzero;stroke:none"
         d="m 6475.85,2469.78 c 0,-12.46 1.47,-21.53 4.4,-27.22 2.93,-5.68 7.6,-8.52 14,-8.52 6.49,0 11.18,2.88 14.09,8.64 2.91,5.76 4.37,14.8 4.37,27.1 0,12.31 -1.46,21.32 -4.37,27.04 -2.91,5.72 -7.6,8.59 -14.09,8.59 -6.4,0 -11.07,-2.83 -14,-8.47 -2.93,-5.65 -4.4,-14.7 -4.4,-27.16 z m 46.82,0 c 0,-14.8 -2.33,-25.86 -7,-33.16 -4.67,-7.31 -11.81,-10.96 -21.42,-10.96 -9.22,0 -16.23,3.74 -21.03,11.22 -4.81,7.48 -7.21,18.45 -7.21,32.9 0,14.92 2.32,26 6.97,33.22 4.65,7.23 11.74,10.84 21.27,10.84 9.3,0 16.36,-3.77 21.18,-11.31 4.83,-7.53 7.24,-18.45 7.24,-32.75" /><path
         id="path170"
         style="fill:#41474c;fill-opacity:1;fill-rule:nonzero;stroke:none"
         d="m 6544.47,2469.78 c 0,-12.46 1.46,-21.53 4.39,-27.22 2.93,-5.68 7.6,-8.52 14.01,-8.52 6.48,0 11.18,2.88 14.09,8.64 2.91,5.76 4.36,14.8 4.36,27.1 0,12.31 -1.45,21.32 -4.36,27.04 -2.91,5.72 -7.61,8.59 -14.09,8.59 -6.41,0 -11.08,-2.83 -14.01,-8.47 -2.93,-5.65 -4.39,-14.7 -4.39,-27.16 z m 46.81,0 c 0,-14.8 -2.33,-25.86 -7,-33.16 -4.67,-7.31 -11.8,-10.96 -21.41,-10.96 -9.22,0 -16.23,3.74 -21.04,11.22 -4.8,7.48 -7.21,18.45 -7.21,32.9 0,14.92 2.33,26 6.98,33.22 4.65,7.23 11.73,10.84 21.27,10.84 9.29,0 16.35,-3.77 21.18,-11.31 4.82,-7.53 7.23,-18.45 7.23,-32.75" /><path
         id="path172"
         style="fill:#41474c;fill-opacity:1;fill-rule:nonzero;stroke:none"
         d="m 6182.44,1973.64 c 0,3.28 -1.02,5.94 -3.05,7.96 -2.02,2.03 -5.96,4.04 -11.79,6.05 v -26.59 c 9.9,1.37 14.84,5.56 14.84,12.58 z m -37.4,42.45 c 0,-3.46 1.03,-6.25 3.08,-8.34 2.05,-2.1 5.61,-4.08 10.66,-5.95 v 26.46 c -4.51,-0.73 -7.93,-2.16 -10.25,-4.28 -2.32,-2.11 -3.49,-4.75 -3.49,-7.89 z m 49.02,-41.56 c 0,-6.2 -2.33,-11.32 -6.98,-15.35 -4.64,-4.03 -11.14,-6.57 -19.48,-7.62 v -15.86 h -8.82 v 15.24 c -5.1,0 -10.04,0.4 -14.83,1.2 -4.78,0.79 -8.7,1.9 -11.76,3.31 v 10.67 c 3.78,-1.69 8.15,-3.07 13.1,-4.14 4.94,-1.07 9.44,-1.6 13.49,-1.6 v 30.07 c -9.34,2.97 -15.89,6.41 -19.64,10.33 -3.77,3.92 -5.65,8.98 -5.65,15.17 0,5.97 2.32,10.87 6.93,14.7 4.63,3.83 10.76,6.15 18.36,6.97 v 12.44 h 8.82 v -12.3 c 8.39,-0.23 16.48,-1.92 24.27,-5.06 l -3.55,-8.95 c -6.79,2.69 -13.7,4.28 -20.72,4.78 v -29.67 c 7.16,-2.28 12.51,-4.5 16.07,-6.66 3.55,-2.17 6.17,-4.65 7.86,-7.45 1.69,-2.81 2.53,-6.21 2.53,-10.22" /><path
         id="path174"
         style="fill:#41474c;fill-opacity:1;fill-rule:nonzero;stroke:none"
         d="m 6279.44,2035.98 c -5.69,0 -10.17,-1.37 -13.4,-4.1 -3.23,-2.73 -4.85,-6.38 -4.85,-10.94 0,-4.19 1.34,-7.79 4.03,-10.8 2.69,-3.01 7.66,-6.01 14.9,-9.02 6.52,2.73 11.13,5.67 13.84,8.82 2.71,3.14 4.07,6.81 4.07,11 0,4.61 -1.65,8.26 -4.95,10.97 -3.31,2.71 -7.85,4.07 -13.64,4.07 z m -21.47,-66.92 c 0,-5.47 1.91,-9.73 5.72,-12.79 3.8,-3.05 9.14,-4.58 16.02,-4.58 6.79,0 12.08,1.6 15.86,4.79 3.78,3.19 5.68,7.56 5.68,13.12 0,4.42 -1.78,8.35 -5.34,11.8 -3.55,3.44 -9.75,6.77 -18.59,10.01 -6.79,-2.91 -11.71,-6.14 -14.77,-9.67 -3.05,-3.53 -4.58,-7.76 -4.58,-12.68 z m 21.61,76.15 c 9.11,0 16.33,-2.12 21.67,-6.36 5.33,-4.24 7.99,-10.09 7.99,-17.57 0,-4.92 -1.52,-9.4 -4.58,-13.46 -3.05,-4.06 -7.93,-7.75 -14.63,-11.08 8.12,-3.87 13.88,-7.94 17.3,-12.2 3.42,-4.26 5.13,-9.19 5.13,-14.8 0,-8.29 -2.89,-14.91 -8.69,-19.86 -5.79,-4.94 -13.72,-7.41 -23.78,-7.41 -10.67,0 -18.87,2.33 -24.61,7 -5.75,4.68 -8.62,11.29 -8.62,19.86 0,11.44 6.98,20.35 20.92,26.73 -6.29,3.55 -10.8,7.39 -13.53,11.52 -2.74,4.12 -4.11,8.74 -4.11,13.84 0,7.25 2.68,13.02 8.04,17.33 5.35,4.31 12.52,6.46 21.5,6.46" /><path
         id="path176"
         style="fill:#41474c;fill-opacity:1;fill-rule:nonzero;stroke:none"
         d="m 6374.53,1993.94 c 0,-14.54 1.71,-25.12 5.12,-31.75 3.42,-6.63 8.87,-9.95 16.34,-9.95 7.57,0 13.05,3.36 16.45,10.08 3.39,6.73 5.08,17.27 5.08,31.62 0,14.36 -1.69,24.87 -5.08,31.55 -3.4,6.67 -8.88,10.01 -16.45,10.01 -7.47,0 -12.92,-3.29 -16.34,-9.87 -3.41,-6.59 -5.12,-17.15 -5.12,-31.69 z m 54.62,0 c 0,-17.27 -2.73,-30.17 -8.18,-38.69 -5.44,-8.52 -13.77,-12.78 -24.98,-12.78 -10.75,0 -18.93,4.36 -24.54,13.09 -5.61,8.72 -8.41,21.52 -8.41,38.38 0,17.41 2.72,30.33 8.14,38.76 5.42,8.43 13.69,12.65 24.81,12.65 10.85,0 19.08,-4.4 24.71,-13.2 5.63,-8.79 8.45,-21.53 8.45,-38.21" /><path
         id="path178"
         style="fill:#41474c;fill-opacity:1;fill-rule:nonzero;stroke:none"
         d="m 6454.58,1993.94 c 0,-14.54 1.7,-25.12 5.12,-31.75 3.42,-6.63 8.87,-9.95 16.34,-9.95 7.57,0 13.05,3.36 16.44,10.08 3.39,6.73 5.09,17.27 5.09,31.62 0,14.36 -1.7,24.87 -5.09,31.55 -3.39,6.67 -8.87,10.01 -16.44,10.01 -7.47,0 -12.92,-3.29 -16.34,-9.87 -3.42,-6.59 -5.12,-17.15 -5.12,-31.69 z m 54.61,0 c 0,-17.27 -2.72,-30.17 -8.16,-38.69 -5.45,-8.52 -13.78,-12.78 -24.99,-12.78 -10.75,0 -18.94,4.36 -24.54,13.09 -5.61,8.72 -8.41,21.52 -8.41,38.38 0,17.41 2.72,30.33 8.14,38.76 5.42,8.43 13.69,12.65 24.81,12.65 10.85,0 19.08,-4.4 24.72,-13.2 5.62,-8.79 8.43,-21.53 8.43,-38.21" /><path
         id="path180"
         style="fill:#41474c;fill-opacity:1;fill-rule:nonzero;stroke:none"
         d="m 6534.62,1993.94 c 0,-14.54 1.71,-25.12 5.13,-31.75 3.42,-6.63 8.87,-9.95 16.34,-9.95 7.57,0 13.05,3.36 16.44,10.08 3.39,6.73 5.09,17.27 5.09,31.62 0,14.36 -1.7,24.87 -5.09,31.55 -3.39,6.67 -8.87,10.01 -16.44,10.01 -7.47,0 -12.92,-3.29 -16.34,-9.87 -3.42,-6.59 -5.13,-17.15 -5.13,-31.69 z m 54.62,0 c 0,-17.27 -2.72,-30.17 -8.17,-38.69 -5.44,-8.52 -13.77,-12.78 -24.98,-12.78 -10.75,0 -18.94,4.36 -24.54,13.09 -5.61,8.72 -8.41,21.52 -8.41,38.38 0,17.41 2.71,30.33 8.13,38.76 5.42,8.43 13.7,12.65 24.82,12.65 10.85,0 19.08,-4.4 24.71,-13.2 5.63,-8.79 8.44,-21.53 8.44,-38.21" /><path
         id="path182"
         style="fill:#41474c;fill-opacity:1;fill-rule:nonzero;stroke:none"
         d="m 6190.89,1494.89 c 0,3.75 -1.16,6.79 -3.47,9.1 -2.32,2.32 -6.81,4.62 -13.48,6.92 v -30.39 c 11.3,1.56 16.95,6.36 16.95,14.37 z m -42.73,48.52 c 0,-3.96 1.17,-7.14 3.51,-9.53 2.35,-2.4 6.41,-4.66 12.19,-6.8 v 30.23 c -5.15,-0.83 -9.06,-2.46 -11.72,-4.88 -2.65,-2.42 -3.98,-5.43 -3.98,-9.02 z m 56.01,-47.5 c 0,-7.08 -2.65,-12.93 -7.96,-17.54 -5.32,-4.61 -12.74,-7.51 -22.27,-8.71 v -18.13 h -10.08 v 17.43 c -5.83,0 -11.48,0.45 -16.95,1.36 -5.47,0.91 -9.95,2.18 -13.44,3.79 v 12.19 c 4.33,-1.92 9.31,-3.51 14.96,-4.73 5.66,-1.22 10.79,-1.83 15.43,-1.83 v 34.37 c -10.67,3.39 -18.16,7.32 -22.46,11.8 -4.3,4.48 -6.44,10.26 -6.44,17.34 0,6.83 2.64,12.42 7.93,16.8 5.28,4.37 12.27,7.03 20.97,7.97 v 14.22 h 10.08 v -14.07 c 9.58,-0.26 18.83,-2.18 27.73,-5.78 l -4.06,-10.23 c -7.76,3.07 -15.65,4.89 -23.67,5.47 v -33.91 c 8.17,-2.61 14.3,-5.15 18.36,-7.62 4.06,-2.47 7.06,-5.31 8.98,-8.51 1.93,-3.21 2.89,-7.1 2.89,-11.68" /><path
         id="path184"
         style="fill:#41474c;fill-opacity:1;fill-rule:nonzero;stroke:none"
         d="m 6303.78,1470.28 c 7.4,0 13.14,2.34 17.23,7 4.09,4.65 6.13,11.39 6.13,20.19 0,7.55 -1.9,13.49 -5.7,17.81 -3.8,4.33 -9.48,6.49 -17.03,6.49 -4.69,0 -8.99,-0.97 -12.89,-2.89 -3.91,-1.93 -7.02,-4.58 -9.34,-7.97 -2.31,-3.39 -3.47,-6.91 -3.47,-10.55 0,-5.36 1.04,-10.36 3.12,-15 2.08,-4.64 5.04,-8.31 8.87,-11.01 3.83,-2.71 8.19,-4.07 13.08,-4.07 z m -38.36,39.38 c 0,22.45 4.37,39.23 13.09,50.35 8.72,11.12 21.63,16.68 38.71,16.68 5.89,0 10.52,-0.5 13.91,-1.48 v -11.18 c -4.02,1.3 -8.6,1.96 -13.75,1.96 -12.24,0 -21.59,-3.82 -28.05,-11.45 -6.45,-7.63 -10,-19.62 -10.62,-35.98 h 0.93 c 5.74,8.96 14.8,13.44 27.19,13.44 10.26,0 18.35,-3.09 24.26,-9.29 5.91,-6.21 8.87,-14.61 8.87,-25.24 0,-11.87 -3.25,-21.21 -9.73,-28.01 -6.48,-6.79 -15.24,-10.19 -26.29,-10.19 -11.83,0 -21.2,4.44 -28.12,13.32 -6.93,8.87 -10.4,21.24 -10.4,37.07" /><path
         id="path186"
         style="fill:#41474c;fill-opacity:1;fill-rule:nonzero;stroke:none"
         d="m 6410.42,1518.1 c 0,-16.62 1.96,-28.72 5.86,-36.29 3.91,-7.58 10.13,-11.37 18.68,-11.37 8.64,0 14.91,3.84 18.79,11.52 3.87,7.69 5.82,19.73 5.82,36.14 0,16.4 -1.95,28.42 -5.82,36.05 -3.88,7.63 -10.15,11.45 -18.79,11.45 -8.55,0 -14.77,-3.76 -18.68,-11.29 -3.9,-7.53 -5.86,-19.6 -5.86,-36.21 z m 62.43,0 c 0,-19.74 -3.12,-34.49 -9.34,-44.22 -6.22,-9.74 -15.74,-14.61 -28.55,-14.61 -12.3,0 -21.64,4.99 -28.05,14.96 -6.41,9.97 -9.61,24.6 -9.61,43.87 0,19.89 3.1,34.65 9.3,44.29 6.2,9.64 15.65,14.46 28.36,14.46 12.39,0 21.8,-5.03 28.24,-15.08 6.43,-10.05 9.65,-24.61 9.65,-43.67" /><path
         id="path188"
         style="fill:#41474c;fill-opacity:1;fill-rule:nonzero;stroke:none"
         d="m 6501.91,1518.1 c 0,-16.62 1.95,-28.72 5.86,-36.29 3.9,-7.58 10.13,-11.37 18.67,-11.37 8.64,0 14.91,3.84 18.79,11.52 3.88,7.69 5.82,19.73 5.82,36.14 0,16.4 -1.94,28.42 -5.82,36.05 -3.88,7.63 -10.15,11.45 -18.79,11.45 -8.54,0 -14.77,-3.76 -18.67,-11.29 -3.91,-7.53 -5.86,-19.6 -5.86,-36.21 z m 62.42,0 c 0,-19.74 -3.11,-34.49 -9.33,-44.22 -6.23,-9.74 -15.75,-14.61 -28.56,-14.61 -12.29,0 -21.64,4.99 -28.05,14.96 -6.4,9.97 -9.61,24.6 -9.61,43.87 0,19.89 3.1,34.65 9.3,44.29 6.2,9.64 15.66,14.46 28.36,14.46 12.39,0 21.81,-5.03 28.24,-15.08 6.44,-10.05 9.65,-24.61 9.65,-43.67" /><path
         id="path190"
         style="fill:#41474c;fill-opacity:1;fill-rule:nonzero;stroke:none"
         d="m 6593.39,1518.1 c 0,-16.62 1.96,-28.72 5.86,-36.29 3.91,-7.58 10.13,-11.37 18.67,-11.37 8.65,0 14.92,3.84 18.79,11.52 3.88,7.69 5.82,19.73 5.82,36.14 0,16.4 -1.94,28.42 -5.82,36.05 -3.87,7.63 -10.14,11.45 -18.79,11.45 -8.54,0 -14.76,-3.76 -18.67,-11.29 -3.9,-7.53 -5.86,-19.6 -5.86,-36.21 z m 62.43,0 c 0,-19.74 -3.12,-34.49 -9.34,-44.22 -6.22,-9.74 -15.74,-14.61 -28.56,-14.61 -12.29,0 -21.64,4.99 -28.04,14.96 -6.41,9.97 -9.61,24.6 -9.61,43.87 0,19.89 3.09,34.65 9.3,44.29 6.2,9.64 15.65,14.46 28.35,14.46 12.4,0 21.81,-5.03 28.25,-15.08 6.43,-10.05 9.65,-24.61 9.65,-43.67" /><path
         id="path192"
         style="fill:#41474c;fill-opacity:1;fill-rule:nonzero;stroke:none"
         d="m 6199.35,1016.15 c 0,4.22 -1.31,7.63 -3.91,10.24 -2.61,2.6 -7.66,5.2 -15.16,7.78 v -34.19 c 12.71,1.76 19.07,7.15 19.07,16.17 z m -48.08,54.58 c 0,-4.45 1.32,-8.02 3.96,-10.72 2.64,-2.7 7.21,-5.24 13.71,-7.65 v 34.02 c -5.8,-0.94 -10.19,-2.77 -13.18,-5.5 -2.99,-2.72 -4.49,-6.1 -4.49,-10.15 z m 63.02,-53.44 c 0,-7.96 -2.99,-14.54 -8.96,-19.731 -5.98,-5.18 -14.33,-8.45 -25.05,-9.797 v -20.391 h -11.34 v 19.598 c -6.56,0 -12.92,0.511 -19.07,1.551 -6.15,1.011 -11.19,2.441 -15.12,4.25 v 13.71 c 4.86,-2.16 10.47,-3.94 16.83,-5.31 6.35,-1.381 12.15,-2.068 17.36,-2.068 v 38.668 c -12.01,3.81 -20.43,8.24 -25.27,13.27 -4.83,5.04 -7.25,11.55 -7.25,19.52 0,7.67 2.97,13.97 8.93,18.89 5.93,4.93 13.81,7.91 23.59,8.97 v 15.99 h 11.34 v -15.82 c 10.78,-0.29 21.18,-2.46 31.2,-6.5 l -4.57,-11.51 c -8.73,3.45 -17.61,5.5 -26.63,6.15 v -38.15 c 9.2,-2.93 16.08,-5.79 20.65,-8.56 4.57,-2.79 7.94,-5.98 10.11,-9.59 2.17,-3.59 3.25,-7.98 3.25,-13.14" /><path
         id="path194"
         style="fill:#41474c;fill-opacity:1;fill-rule:nonzero;stroke:none"
         d="m 6339.18,1020.63 v 42.72 c 0,8.38 0.3,17.84 0.88,28.39 h -0.7 c -2.81,-5.63 -5.45,-10.28 -7.91,-13.98 l -40.17,-57.13 z m 33.05,-13.27 h -19.07 v -29.532 h -13.98 v 29.532 h -62.49 v 12.75 l 61,86.92 h 15.47 v -86.4 h 19.07 v -13.27" /><path
         id="path196"
         style="fill:#41474c;fill-opacity:1;fill-rule:nonzero;stroke:none"
         d="m 6446.32,1042.26 c 0,-18.7 2.2,-32.3 6.6,-40.83 4.39,-8.52 11.39,-12.789 21,-12.789 9.73,0 16.77,4.32 21.13,12.959 4.37,8.64 6.56,22.2 6.56,40.66 0,18.45 -2.19,31.97 -6.56,40.55 -4.36,8.59 -11.4,12.88 -21.13,12.88 -9.61,0 -16.61,-4.23 -21,-12.7 -4.4,-8.47 -6.6,-22.04 -6.6,-40.73 z m 70.23,0 c 0,-22.21 -3.51,-38.79 -10.5,-49.748 -7.01,-10.961 -17.72,-16.442 -32.13,-16.442 -13.83,0 -24.34,5.61 -31.55,16.84 -7.21,11.21 -10.81,27.67 -10.81,49.35 0,22.38 3.48,38.99 10.46,49.83 6.97,10.84 17.6,16.26 31.9,16.26 13.95,0 24.53,-5.65 31.78,-16.96 7.22,-11.31 10.85,-27.69 10.85,-49.13" /><path
         id="path198"
         style="fill:#41474c;fill-opacity:1;fill-rule:nonzero;stroke:none"
         d="m 6549.24,1042.26 c 0,-18.7 2.2,-32.3 6.59,-40.83 4.4,-8.52 11.4,-12.789 21.01,-12.789 9.73,0 16.77,4.32 21.14,12.959 4.36,8.64 6.55,22.2 6.55,40.66 0,18.45 -2.19,31.97 -6.55,40.55 -4.37,8.59 -11.41,12.88 -21.14,12.88 -9.61,0 -16.61,-4.23 -21.01,-12.7 -4.39,-8.47 -6.59,-22.04 -6.59,-40.73 z m 70.23,0 c 0,-22.21 -3.51,-38.79 -10.51,-49.748 -7,-10.961 -17.71,-16.442 -32.12,-16.442 -13.83,0 -24.34,5.61 -31.55,16.84 -7.21,11.21 -10.81,27.67 -10.81,49.35 0,22.38 3.48,38.99 10.46,49.83 6.97,10.84 17.6,16.26 31.9,16.26 13.95,0 24.53,-5.65 31.77,-16.96 7.23,-11.31 10.86,-27.69 10.86,-49.13" /><path
         id="path200"
         style="fill:#41474c;fill-opacity:1;fill-rule:nonzero;stroke:none"
         d="m 6652.16,1042.26 c 0,-18.7 2.2,-32.3 6.59,-40.83 4.4,-8.52 11.4,-12.789 21.01,-12.789 9.73,0 16.77,4.32 21.13,12.959 4.37,8.64 6.56,22.2 6.56,40.66 0,18.45 -2.19,31.97 -6.56,40.55 -4.36,8.59 -11.4,12.88 -21.13,12.88 -9.61,0 -16.61,-4.23 -21.01,-12.7 -4.39,-8.47 -6.59,-22.04 -6.59,-40.73 z m 70.23,0 c 0,-22.21 -3.51,-38.79 -10.5,-49.748 -7.01,-10.961 -17.72,-16.442 -32.13,-16.442 -13.83,0 -24.34,5.61 -31.55,16.84 -7.21,11.21 -10.81,27.67 -10.81,49.35 0,22.38 3.48,38.99 10.46,49.83 6.97,10.84 17.6,16.26 31.9,16.26 13.95,0 24.53,-5.65 31.78,-16.96 7.22,-11.31 10.85,-27.69 10.85,-49.13" /><path
         id="path202"
         style="fill:#41474c;fill-opacity:1;fill-rule:nonzero;stroke:none"
         d="m 6207.81,537.41 c 0,4.692 -1.45,8.481 -4.35,11.379 -2.9,2.902 -8.51,5.781 -16.84,8.641 v -37.989 c 14.13,1.957 21.19,7.938 21.19,17.969 z m -53.42,60.649 c 0,-4.95 1.46,-8.918 4.39,-11.918 2.93,-3 8.01,-5.832 15.24,-8.493 v 37.793 c -6.45,-1.05 -11.33,-3.082 -14.65,-6.101 -3.32,-3.031 -4.98,-6.789 -4.98,-11.281 z m 70.02,-59.379 c 0,-8.86 -3.32,-16.16 -9.96,-21.918 -6.64,-5.762 -15.92,-9.403 -27.83,-10.891 v -22.66 h -12.6 v 21.777 c -7.3,0 -14.36,0.571 -21.19,1.711 -6.84,1.141 -12.43,2.711 -16.8,4.742 v 15.231 c 5.4,-2.41 11.64,-4.383 18.7,-5.91 7.06,-1.532 13.5,-2.293 19.29,-2.293 v 42.972 c -13.35,4.219 -22.71,9.149 -28.08,14.739 -5.37,5.601 -8.05,12.82 -8.05,21.679 0,8.532 3.3,15.532 9.91,21 6.61,5.469 15.35,8.789 26.22,9.961 v 17.77 h 12.6 v -17.578 c 11.98,-0.321 23.53,-2.731 34.66,-7.223 l -5.07,-12.801 c -9.7,3.84 -19.56,6.133 -29.59,6.84 v -42.379 c 10.22,-3.25 17.87,-6.429 22.95,-9.519 5.07,-3.102 8.81,-6.641 11.23,-10.649 2.41,-4 3.61,-8.871 3.61,-14.601" /><path
         id="path204"
         style="fill:#41474c;fill-opacity:1;fill-rule:nonzero;stroke:none"
         d="m 6393.16,494.832 h -93.85 v 13.969 l 37.6,37.789 c 11.45,11.59 19.01,19.859 22.66,24.808 3.64,4.954 6.37,9.762 8.2,14.454 1.82,4.687 2.73,9.738 2.73,15.136 0,7.614 -2.31,13.653 -6.93,18.114 -4.62,4.457 -11.04,6.687 -19.24,6.687 -5.93,0 -11.54,-0.98 -16.84,-2.93 -5.31,-1.949 -11.22,-5.5 -17.73,-10.64 l -8.59,11.031 c 13.15,10.941 27.47,16.41 42.97,16.41 13.4,0 23.92,-3.441 31.54,-10.301 7.62,-6.871 11.42,-16.097 11.42,-27.687 0,-9.051 -2.53,-18 -7.61,-26.863 -5.08,-8.848 -14.58,-20.039 -28.52,-33.59 l -31.25,-30.571 v -0.777 h 73.44 v -15.039" /><path
         id="path206"
         style="fill:#41474c;fill-opacity:1;fill-rule:nonzero;stroke:none"
         d="m 6482.22,566.422 c 0,-20.781 2.44,-35.891 7.33,-45.371 4.88,-9.473 12.66,-14.199 23.34,-14.199 10.81,0 18.63,4.796 23.48,14.398 4.86,9.602 7.28,24.66 7.28,45.172 0,20.5 -2.42,35.519 -7.28,45.058 -4.85,9.551 -12.67,14.309 -23.48,14.309 -10.68,0 -18.46,-4.707 -23.34,-14.109 -4.89,-9.399 -7.33,-24.489 -7.33,-45.258 z m 78.03,0 c 0,-24.684 -3.89,-43.102 -11.67,-55.281 -7.78,-12.18 -19.68,-18.262 -35.69,-18.262 -15.37,0 -27.06,6.23 -35.06,18.699 -8.01,12.473 -12.01,30.742 -12.01,54.844 0,24.867 3.87,43.328 11.62,55.367 7.74,12.043 19.56,18.063 35.45,18.063 15.49,0 27.26,-6.282 35.3,-18.84 8.04,-12.571 12.06,-30.774 12.06,-54.59" /><path
         id="path208"
         style="fill:#41474c;fill-opacity:1;fill-rule:nonzero;stroke:none"
         d="m 6596.58,566.422 c 0,-20.781 2.44,-35.891 7.32,-45.371 4.88,-9.473 12.67,-14.199 23.34,-14.199 10.81,0 18.63,4.796 23.49,14.398 4.85,9.602 7.27,24.66 7.27,45.172 0,20.5 -2.42,35.519 -7.27,45.058 -4.86,9.551 -12.68,14.309 -23.49,14.309 -10.67,0 -18.46,-4.707 -23.34,-14.109 -4.88,-9.399 -7.32,-24.489 -7.32,-45.258 z m 78.02,0 c 0,-24.684 -3.88,-43.102 -11.67,-55.281 -7.78,-12.18 -19.67,-18.262 -35.69,-18.262 -15.36,0 -27.05,6.23 -35.06,18.699 -8.01,12.473 -12.01,30.742 -12.01,54.844 0,24.867 3.88,43.328 11.62,55.367 7.75,12.043 19.56,18.063 35.45,18.063 15.5,0 27.27,-6.282 35.3,-18.84 8.04,-12.571 12.06,-30.774 12.06,-54.59" /><path
         id="path210"
         style="fill:#41474c;fill-opacity:1;fill-rule:nonzero;stroke:none"
         d="m 6710.93,566.422 c 0,-20.781 2.44,-35.891 7.33,-45.371 4.88,-9.473 12.66,-14.199 23.34,-14.199 10.81,0 18.63,4.796 23.48,14.398 4.86,9.602 7.28,24.66 7.28,45.172 0,20.5 -2.42,35.519 -7.28,45.058 -4.85,9.551 -12.67,14.309 -23.48,14.309 -10.68,0 -18.46,-4.707 -23.34,-14.109 -4.89,-9.399 -7.33,-24.489 -7.33,-45.258 z m 78.03,0 c 0,-24.684 -3.89,-43.102 -11.67,-55.281 -7.78,-12.18 -19.68,-18.262 -35.69,-18.262 -15.36,0 -27.05,6.23 -35.06,18.699 -8.01,12.473 -12.01,30.742 -12.01,54.844 0,24.867 3.87,43.328 11.62,55.367 7.74,12.043 19.56,18.063 35.45,18.063 15.49,0 27.26,-6.282 35.3,-18.84 8.04,-12.571 12.06,-30.774 12.06,-54.59" /><path
         id="path212"
         style="fill:#41474c;fill-opacity:1;fill-rule:nonzero;stroke:none"
         d="m 493.715,531.449 c 0,1.09 -0.438,2.012 -1.328,2.77 -0.887,0.761 -2.215,1.543 -3.985,2.34 v -9.719 c 3.547,0.601 5.313,2.121 5.313,4.609 z m -15.703,23.711 c 0,-1.16 0.402,-2.09 1.191,-2.84 0.793,-0.742 2.082,-1.5 3.848,-2.281 v 9.18 c -3.36,-0.489 -5.039,-1.86 -5.039,-4.059 z m 27.461,-23.129 c 0,-4.14 -1.493,-7.461 -4.493,-9.98 -2.996,-2.52 -7.187,-4.02 -12.578,-4.512 v -8.008 h -5.351 v 7.848 c -6.356,0.141 -11.922,1.25 -16.719,3.359 v 10.313 c 2.266,-1.11 4.992,-2.102 8.184,-2.961 3.195,-0.86 6.035,-1.371 8.535,-1.531 v 12.113 l -2.617,1.019 c -5.157,2.028 -8.809,4.239 -10.957,6.618 -2.149,2.382 -3.223,5.332 -3.223,8.851 0,3.77 1.476,6.871 4.434,9.309 2.96,2.441 7.082,3.91 12.363,4.441 v 5.969 h 5.351 v -5.82 c 5.969,-0.25 11.36,-1.457 16.172,-3.59 l -3.672,-9.137 c -4.062,1.656 -8.23,2.668 -12.5,3.047 v -11.527 c 5.078,-1.954 8.692,-3.653 10.84,-5.082 2.149,-1.418 3.723,-3 4.727,-4.719 1.008,-1.719 1.504,-3.731 1.504,-6.02" /><path
         id="path214"
         style="fill:#41474c;fill-opacity:1;fill-rule:nonzero;stroke:none"
         d="m 538.129,514.18 21.445,46.871 H 531.41 v 10.16 h 40.977 v -7.582 L 550.785,514.18 h -12.656" /><path
         id="path216"
         style="fill:#41474c;fill-opacity:1;fill-rule:nonzero;stroke:none"
         d="m 598.91,550.66 c 5.52,0 9.914,-1.539 13.184,-4.64 3.273,-3.11 4.902,-7.348 4.902,-12.739 0,-6.39 -1.961,-11.293 -5.898,-14.73 -3.934,-3.43 -9.559,-5.153 -16.875,-5.153 -6.356,0 -11.485,1.032 -15.391,3.082 v 10.43 c 2.063,-1.09 4.453,-1.988 7.188,-2.672 2.734,-0.687 5.324,-1.039 7.773,-1.039 7.375,0 11.055,3.031 11.055,9.071 0,5.761 -3.817,8.628 -11.446,8.628 -1.375,0 -2.898,-0.136 -4.57,-0.41 -1.668,-0.277 -3.016,-0.566 -4.062,-0.879 l -4.805,2.582 2.148,29.098 h 30.977 v -10.238 h -20.391 l -1.054,-11.211 1.367,0.281 c 1.593,0.367 3.554,0.539 5.898,0.539" /><path
         id="path218"
         style="fill:#41474c;fill-opacity:1;fill-rule:nonzero;stroke:none"
         d="m 635.473,542.73 c 0,-7.011 0.605,-12.031 1.816,-15.05 1.211,-3.032 3.254,-4.551 6.113,-4.551 2.813,0 4.844,1.543 6.094,4.601 1.25,3.071 1.875,8.071 1.875,15 0,7.02 -0.633,12.04 -1.894,15.098 -1.258,3.07 -3.289,4.594 -6.075,4.594 -2.839,0 -4.871,-1.524 -6.093,-4.594 -1.219,-3.058 -1.836,-8.078 -1.836,-15.098 z m 27.929,0 c 0,-9.98 -1.629,-17.359 -4.902,-22.14 -3.27,-4.789 -8.301,-7.192 -15.098,-7.192 -6.589,0 -11.55,2.481 -14.902,7.422 -3.348,4.942 -5.02,12.25 -5.02,21.91 0,10.079 1.633,17.5 4.883,22.29 3.254,4.781 8.274,7.171 15.039,7.171 6.594,0 11.575,-2.5 14.942,-7.5 3.371,-5 5.058,-12.332 5.058,-21.961" /><path
         id="path220"
         style="fill:#41474c;fill-opacity:1;fill-rule:nonzero;stroke:none"
         d="m 937.875,624.781 c 0,1.09 -0.437,2.02 -1.328,2.77 -0.887,0.75 -2.215,1.527 -3.984,2.34 v -9.719 c 3.546,0.59 5.312,2.129 5.312,4.609 z m -15.703,23.707 c 0,-1.148 0.402,-2.09 1.191,-2.84 0.793,-0.738 2.082,-1.5 3.848,-2.277 v 9.18 c -3.359,-0.5 -5.039,-1.852 -5.039,-4.063 z m 27.461,-23.129 c 0,-4.14 -1.492,-7.468 -4.492,-9.98 -2.996,-2.508 -7.188,-4.008 -12.578,-4.508 v -8.012 h -5.352 v 7.852 c -6.356,0.129 -11.922,1.25 -16.719,3.359 v 10.309 c 2.266,-1.117 4.992,-2.098 8.184,-2.957 3.195,-0.863 6.035,-1.371 8.535,-1.531 V 632 l -2.617,1.02 c -5.156,2.031 -8.809,4.242 -10.957,6.621 -2.149,2.379 -3.223,5.328 -3.223,8.847 0,3.782 1.477,6.883 4.434,9.313 2.961,2.429 7.082,3.918 12.363,4.437 v 5.973 h 5.352 v -5.82 c 5.968,-0.262 11.359,-1.45 16.171,-3.59 l -3.671,-9.141 c -4.063,1.672 -8.231,2.68 -12.5,3.051 V 641.18 c 5.078,-1.95 8.691,-3.641 10.839,-5.078 2.149,-1.43 3.723,-3 4.727,-4.723 1.008,-1.719 1.504,-3.719 1.504,-6.02" /><path
         id="path222"
         style="fill:#41474c;fill-opacity:1;fill-rule:nonzero;stroke:none"
         d="m 1006.47,607.512 h -12.072 v 33.047 l 0.118,5.429 0.195,5.934 c -2,-2 -3.398,-3.32 -4.18,-3.942 l -6.562,-5.269 -5.821,7.258 18.399,14.652 h 9.923 v -57.109" /><path
         id="path224"
         style="fill:#41474c;fill-opacity:1;fill-rule:nonzero;stroke:none"
         d="m 1065.61,628.719 v 9.691 c 0,1.61 0.07,3.949 0.2,7.031 0.12,3.079 0.23,4.848 0.31,5.348 h -0.31 c -0.97,-2.141 -2.12,-4.219 -3.48,-6.25 l -10.47,-15.82 z m 18.67,-9.367 h -6.87 v -11.84 h -11.8 v 11.84 h -24.37 v 8.386 l 25.03,36.883 h 11.14 v -35.902 h 6.87 v -9.367" /><path
         id="path226"
         style="fill:#41474c;fill-opacity:1;fill-rule:nonzero;stroke:none"
         d="m 1100.42,636.059 c 0,-7 0.6,-12.02 1.81,-15.047 1.21,-3.043 3.25,-4.551 6.11,-4.551 2.82,0 4.85,1.527 6.1,4.598 1.25,3.082 1.87,8.082 1.87,15 0,7.011 -0.63,12.05 -1.89,15.101 -1.26,3.059 -3.29,4.59 -6.08,4.59 -2.84,0 -4.87,-1.531 -6.09,-4.59 -1.22,-3.051 -1.83,-8.09 -1.83,-15.101 z m 27.92,0 c 0,-9.969 -1.63,-17.348 -4.9,-22.137 -3.27,-4.801 -8.3,-7.192 -15.1,-7.192 -6.59,0 -11.55,2.469 -14.9,7.418 -3.35,4.954 -5.02,12.262 -5.02,21.911 0,10.082 1.63,17.511 4.89,22.293 3.25,4.777 8.27,7.168 15.03,7.168 6.6,0 11.58,-2.5 14.95,-7.5 3.37,-5 5.05,-12.321 5.05,-21.961" /><path
         id="path228"
         style="fill:#41474c;fill-opacity:1;fill-rule:nonzero;stroke:none"
         d="m 1146.08,636.059 c 0,-7 0.6,-12.02 1.82,-15.047 1.21,-3.043 3.25,-4.551 6.11,-4.551 2.81,0 4.84,1.527 6.09,4.598 1.25,3.082 1.88,8.082 1.88,15 0,7.011 -0.64,12.05 -1.9,15.101 -1.26,3.059 -3.29,4.59 -6.07,4.59 -2.84,0 -4.87,-1.531 -6.09,-4.59 -1.23,-3.051 -1.84,-8.09 -1.84,-15.101 z m 27.93,0 c 0,-9.969 -1.63,-17.348 -4.9,-22.137 -3.28,-4.801 -8.3,-7.192 -15.1,-7.192 -6.59,0 -11.55,2.469 -14.9,7.418 -3.35,4.954 -5.02,12.262 -5.02,21.911 0,10.082 1.63,17.511 4.88,22.293 3.25,4.777 8.27,7.168 15.04,7.168 6.59,0 11.57,-2.5 14.94,-7.5 3.37,-5 5.06,-12.321 5.06,-21.961" /><path
         id="path230"
         style="fill:#41474c;fill-opacity:1;fill-rule:nonzero;stroke:none"
         d="m 1337.88,811.441 c 0,1.09 -0.44,2.02 -1.33,2.77 -0.89,0.75 -2.22,1.527 -3.99,2.34 v -9.723 c 3.55,0.594 5.32,2.133 5.32,4.613 z m -15.71,23.707 c 0,-1.148 0.4,-2.089 1.19,-2.839 0.8,-0.739 2.08,-1.5 3.85,-2.278 v 9.18 c -3.36,-0.5 -5.04,-1.852 -5.04,-4.063 z m 27.46,-23.128 c 0,-4.141 -1.49,-7.469 -4.49,-9.981 -3,-2.508 -7.19,-4.008 -12.58,-4.508 v -8.011 h -5.35 v 7.851 c -6.36,0.129 -11.92,1.25 -16.72,3.359 v 10.309 c 2.27,-1.117 4.99,-2.098 8.19,-2.961 3.19,-0.859 6.03,-1.367 8.53,-1.527 v 12.109 l -2.62,1.02 c -5.15,2.031 -8.8,4.242 -10.95,6.621 -2.15,2.379 -3.22,5.328 -3.22,8.847 0,3.782 1.47,6.883 4.43,9.313 2.96,2.43 7.08,3.918 12.36,4.437 v 5.973 h 5.35 v -5.82 c 5.97,-0.262 11.36,-1.449 16.18,-3.59 l -3.68,-9.141 c -4.06,1.668 -8.23,2.68 -12.5,3.051 V 827.84 c 5.08,-1.949 8.69,-3.641 10.84,-5.078 2.15,-1.43 3.72,-3 4.73,-4.723 1.01,-1.719 1.5,-3.719 1.5,-6.019" /><path
         id="path232"
         style="fill:#41474c;fill-opacity:1;fill-rule:nonzero;stroke:none"
         d="m 1416.55,794.172 h -39.92 v 8.398 l 14.33,14.489 c 4.25,4.351 7.02,7.363 8.32,9.043 1.3,1.679 2.24,3.238 2.81,4.668 0.58,1.441 0.86,2.921 0.86,4.449 0,2.301 -0.63,4 -1.89,5.121 -1.26,1.121 -2.95,1.68 -5.06,1.68 -2.22,0 -4.36,-0.508 -6.44,-1.52 -2.08,-1.02 -4.26,-2.461 -6.53,-4.34 l -6.56,7.781 c 2.81,2.391 5.15,4.09 6.99,5.071 1.85,0.988 3.87,1.75 6.06,2.289 2.18,0.539 4.64,0.801 7.34,0.801 3.56,0 6.72,-0.653 9.45,-1.954 2.74,-1.296 4.86,-3.128 6.37,-5.468 1.51,-2.348 2.27,-5.032 2.27,-8.051 0,-2.629 -0.46,-5.098 -1.39,-7.399 -0.93,-2.308 -2.35,-4.671 -4.3,-7.089 -1.94,-2.422 -5.36,-5.871 -10.25,-10.352 l -7.34,-6.918 v -0.543 h 24.88 v -10.156" /><path
         id="path234"
         style="fill:#41474c;fill-opacity:1;fill-rule:nonzero;stroke:none"
         d="m 1465.61,815.379 v 9.691 c 0,1.61 0.07,3.95 0.2,7.032 0.12,3.078 0.23,4.847 0.31,5.347 h -0.31 c -0.97,-2.14 -2.12,-4.219 -3.48,-6.25 l -10.47,-15.82 z m 18.67,-9.367 h -6.87 v -11.84 h -11.8 v 11.84 h -24.37 v 8.386 l 25.03,36.883 h 11.14 v -35.902 h 6.87 v -9.367" /><path
         id="path236"
         style="fill:#41474c;fill-opacity:1;fill-rule:nonzero;stroke:none"
         d="m 1500.42,822.719 c 0,-7 0.6,-12.02 1.81,-15.047 1.21,-3.043 3.25,-4.551 6.11,-4.551 2.82,0 4.85,1.527 6.1,4.598 1.25,3.082 1.87,8.082 1.87,15 0,7.011 -0.63,12.051 -1.89,15.101 -1.26,3.059 -3.29,4.59 -6.08,4.59 -2.84,0 -4.87,-1.531 -6.09,-4.59 -1.22,-3.05 -1.83,-8.09 -1.83,-15.101 z m 27.92,0 c 0,-9.969 -1.63,-17.348 -4.9,-22.141 -3.27,-4.797 -8.3,-7.187 -15.1,-7.187 -6.59,0 -11.55,2.468 -14.9,7.418 -3.35,4.953 -5.02,12.261 -5.02,21.91 0,10.082 1.63,17.511 4.89,22.293 3.25,4.777 8.27,7.168 15.03,7.168 6.6,0 11.58,-2.5 14.95,-7.5 3.37,-5 5.05,-12.321 5.05,-21.961" /><path
         id="path238"
         style="fill:#41474c;fill-opacity:1;fill-rule:nonzero;stroke:none"
         d="m 1546.08,822.719 c 0,-7 0.6,-12.02 1.82,-15.047 1.21,-3.043 3.25,-4.551 6.11,-4.551 2.81,0 4.84,1.527 6.09,4.598 1.25,3.082 1.88,8.082 1.88,15 0,7.011 -0.64,12.051 -1.9,15.101 -1.26,3.059 -3.29,4.59 -6.07,4.59 -2.84,0 -4.87,-1.531 -6.09,-4.59 -1.23,-3.05 -1.84,-8.09 -1.84,-15.101 z m 27.93,0 c 0,-9.969 -1.63,-17.348 -4.9,-22.141 -3.28,-4.797 -8.3,-7.187 -15.1,-7.187 -6.59,0 -11.55,2.468 -14.9,7.418 -3.35,4.953 -5.02,12.261 -5.02,21.91 0,10.082 1.63,17.511 4.88,22.293 3.25,4.777 8.27,7.168 15.04,7.168 6.59,0 11.57,-2.5 14.94,-7.5 3.37,-5 5.06,-12.321 5.06,-21.961" /><path
         id="path240"
         style="fill:#41474c;fill-opacity:1;fill-rule:nonzero;stroke:none"
         d="m 1747.88,1124.77 c 0,1.09 -0.44,2.01 -1.33,2.77 -0.89,0.76 -2.22,1.54 -3.99,2.34 v -9.72 c 3.55,0.6 5.32,2.13 5.32,4.61 z m -15.71,23.71 c 0,-1.16 0.4,-2.09 1.19,-2.84 0.8,-0.74 2.08,-1.5 3.85,-2.28 v 9.18 c -3.36,-0.49 -5.04,-1.86 -5.04,-4.06 z m 27.46,-23.13 c 0,-4.14 -1.49,-7.46 -4.49,-9.98 -3,-2.52 -7.19,-4.02 -12.58,-4.51 v -8.01 h -5.35 v 7.85 c -6.36,0.14 -11.92,1.25 -16.72,3.36 v 10.32 c 2.27,-1.12 4.99,-2.11 8.19,-2.97 3.19,-0.86 6.03,-1.37 8.53,-1.53 v 12.11 l -2.62,1.02 c -5.15,2.03 -8.8,4.24 -10.95,6.62 -2.15,2.38 -3.22,5.33 -3.22,8.85 0,3.77 1.47,6.87 4.43,9.31 2.96,2.44 7.08,3.91 12.36,4.44 v 5.97 h 5.35 v -5.82 c 5.97,-0.25 11.36,-1.46 16.18,-3.59 l -3.68,-9.14 c -4.06,1.66 -8.23,2.67 -12.5,3.05 v -11.53 c 5.08,-1.95 8.69,-3.65 10.84,-5.08 2.15,-1.42 3.72,-3 4.73,-4.72 1.01,-1.72 1.5,-3.73 1.5,-6.02" /><path
         id="path242"
         style="fill:#41474c;fill-opacity:1;fill-rule:nonzero;stroke:none"
         d="m 1809.17,1128.71 v 9.69 c 0,1.62 0.06,3.96 0.19,7.03 0.13,3.07 0.23,4.86 0.31,5.35 h -0.31 c -0.97,-2.13 -2.12,-4.22 -3.48,-6.25 l -10.46,-15.82 z m 18.67,-9.37 h -6.88 v -11.84 h -11.79 v 11.84 h -24.38 v 8.39 l 25.04,36.88 h 11.13 v -35.9 h 6.88 v -9.37" /><path
         id="path244"
         style="fill:#41474c;fill-opacity:1;fill-rule:nonzero;stroke:none"
         d="m 1864.75,1136.05 c 0,-7.01 0.61,-12.03 1.82,-15.05 1.21,-3.03 3.25,-4.55 6.11,-4.55 2.81,0 4.84,1.54 6.09,4.6 1.25,3.07 1.88,8.07 1.88,15 0,7.02 -0.64,12.04 -1.9,15.1 -1.25,3.07 -3.29,4.59 -6.07,4.59 -2.84,0 -4.87,-1.52 -6.09,-4.59 -1.22,-3.06 -1.84,-8.08 -1.84,-15.1 z m 27.93,0 c 0,-9.98 -1.63,-17.36 -4.9,-22.14 -3.27,-4.79 -8.3,-7.19 -15.1,-7.19 -6.59,0 -11.55,2.48 -14.9,7.42 -3.35,4.94 -5.02,12.25 -5.02,21.91 0,10.08 1.63,17.5 4.88,22.29 3.25,4.79 8.27,7.17 15.04,7.17 6.59,0 11.57,-2.5 14.94,-7.5 3.37,-5 5.06,-12.33 5.06,-21.96" /><path
         id="path246"
         style="fill:#41474c;fill-opacity:1;fill-rule:nonzero;stroke:none"
         d="m 1910.42,1136.05 c 0,-7.01 0.6,-12.03 1.81,-15.05 1.21,-3.03 3.25,-4.55 6.11,-4.55 2.82,0 4.85,1.54 6.1,4.6 1.25,3.07 1.87,8.07 1.87,15 0,7.02 -0.63,12.04 -1.89,15.1 -1.26,3.07 -3.29,4.59 -6.08,4.59 -2.84,0 -4.87,-1.52 -6.09,-4.59 -1.22,-3.06 -1.83,-8.08 -1.83,-15.1 z m 27.92,0 c 0,-9.98 -1.63,-17.36 -4.9,-22.14 -3.27,-4.79 -8.3,-7.19 -15.1,-7.19 -6.59,0 -11.55,2.48 -14.9,7.42 -3.35,4.94 -5.02,12.25 -5.02,21.91 0,10.08 1.63,17.5 4.89,22.29 3.25,4.79 8.27,7.17 15.03,7.17 6.6,0 11.58,-2.5 14.95,-7.5 3.37,-5 5.05,-12.33 5.05,-21.96" /><path
         id="path248"
         style="fill:#41474c;fill-opacity:1;fill-rule:nonzero;stroke:none"
         d="m 1956.08,1136.05 c 0,-7.01 0.6,-12.03 1.82,-15.05 1.21,-3.03 3.25,-4.55 6.11,-4.55 2.81,0 4.84,1.54 6.09,4.6 1.25,3.07 1.88,8.07 1.88,15 0,7.02 -0.64,12.04 -1.9,15.1 -1.26,3.07 -3.29,4.59 -6.07,4.59 -2.84,0 -4.87,-1.52 -6.09,-4.59 -1.23,-3.06 -1.84,-8.08 -1.84,-15.1 z m 27.93,0 c 0,-9.98 -1.63,-17.36 -4.9,-22.14 -3.28,-4.79 -8.3,-7.19 -15.1,-7.19 -6.59,0 -11.55,2.48 -14.9,7.42 -3.35,4.94 -5.02,12.25 -5.02,21.91 0,10.08 1.63,17.5 4.88,22.29 3.25,4.79 8.27,7.17 15.04,7.17 6.59,0 11.57,-2.5 14.94,-7.5 3.37,-5 5.06,-12.33 5.06,-21.96" /><path
         id="path250"
         style="fill:#41474c;fill-opacity:1;fill-rule:nonzero;stroke:none"
         d="m 2678.3,1588.95 c 0,1.09 -0.45,2.01 -1.33,2.77 -0.9,0.76 -2.23,1.54 -3.99,2.34 v -9.72 c 3.54,0.6 5.32,2.12 5.32,4.61 z m -15.71,23.71 c 0,-1.16 0.39,-2.09 1.19,-2.84 0.79,-0.74 2.07,-1.5 3.85,-2.28 v 9.18 c -3.36,-0.49 -5.04,-1.86 -5.04,-4.06 z m 27.46,-23.13 c 0,-4.14 -1.5,-7.46 -4.49,-9.98 -3.01,-2.52 -7.19,-4.02 -12.58,-4.51 v -8.01 h -5.35 v 7.85 c -6.37,0.14 -11.93,1.25 -16.72,3.36 v 10.31 c 2.27,-1.11 4.98,-2.1 8.19,-2.96 3.18,-0.86 6.03,-1.37 8.53,-1.53 v 12.11 l -2.62,1.02 c -5.15,2.03 -8.8,4.24 -10.95,6.62 -2.15,2.38 -3.23,5.33 -3.23,8.85 0,3.77 1.47,6.87 4.44,9.31 2.95,2.44 7.07,3.91 12.36,4.44 v 5.97 h 5.35 v -5.82 c 5.96,-0.25 11.35,-1.46 16.18,-3.59 l -3.68,-9.14 c -4.06,1.66 -8.24,2.67 -12.5,3.05 v -11.53 c 5.08,-1.95 8.69,-3.65 10.84,-5.08 2.15,-1.42 3.71,-3 4.73,-4.72 1,-1.72 1.5,-3.73 1.5,-6.02" /><path
         id="path252"
         style="fill:#41474c;fill-opacity:1;fill-rule:nonzero;stroke:none"
         d="m 2737.28,1580.55 c 2.58,0 4.55,0.86 5.94,2.59 1.36,1.74 2.07,4.2 2.07,7.41 0,2.79 -0.65,4.98 -1.94,6.58 -1.28,1.6 -3.24,2.4 -5.84,2.4 -2.46,0 -4.55,-0.8 -6.26,-2.38 -1.74,-1.58 -2.6,-3.44 -2.6,-5.55 0,-3.1 0.8,-5.72 2.44,-7.85 1.62,-2.13 3.69,-3.2 6.19,-3.2 z m -20.62,15.39 c 0,11.31 2.38,19.7 7.16,25.23 4.77,5.53 11.94,8.28 21.47,8.28 3.24,0 5.8,-0.19 7.65,-0.58 v -9.65 c -2.32,0.53 -4.61,0.78 -6.87,0.78 -4.14,0 -7.52,-0.62 -10.14,-1.87 -2.61,-1.25 -4.59,-3.11 -5.88,-5.55 -1.3,-2.44 -2.07,-5.92 -2.3,-10.43 h 0.51 c 2.57,4.43 6.7,6.64 12.38,6.64 5.1,0 9.1,-1.6 11.99,-4.81 2.89,-3.2 4.34,-7.63 4.34,-13.28 0,-6.09 -1.72,-10.91 -5.16,-14.47 -3.44,-3.55 -8.2,-5.33 -14.3,-5.33 -4.21,0 -7.91,0.98 -11.03,2.93 -3.15,1.95 -5.57,4.8 -7.27,8.55 -1.71,3.75 -2.55,8.26 -2.55,13.56" /><path
         id="path254"
         style="fill:#41474c;fill-opacity:1;fill-rule:nonzero;stroke:none"
         d="m 2795.17,1600.23 c 0,-7.01 0.61,-12.03 1.82,-15.05 1.21,-3.03 3.24,-4.55 6.11,-4.55 2.81,0 4.84,1.54 6.09,4.6 1.25,3.07 1.88,8.07 1.88,15 0,7.02 -0.65,12.04 -1.9,15.1 -1.26,3.07 -3.3,4.59 -6.07,4.59 -2.85,0 -4.88,-1.52 -6.09,-4.59 -1.23,-3.06 -1.84,-8.08 -1.84,-15.1 z m 27.93,0 c 0,-9.98 -1.64,-17.36 -4.9,-22.14 -3.28,-4.79 -8.3,-7.19 -15.1,-7.19 -6.6,0 -11.56,2.48 -14.9,7.42 -3.36,4.94 -5.02,12.25 -5.02,21.91 0,10.08 1.62,17.5 4.88,22.29 3.24,4.78 8.26,7.17 15.04,7.17 6.58,0 11.56,-2.5 14.94,-7.5 3.36,-5 5.06,-12.33 5.06,-21.96" /><path
         id="path256"
         style="fill:#41474c;fill-opacity:1;fill-rule:nonzero;stroke:none"
         d="m 2840.83,1600.23 c 0,-7.01 0.61,-12.03 1.82,-15.05 1.21,-3.03 3.24,-4.55 6.11,-4.55 2.82,0 4.85,1.54 6.1,4.6 1.25,3.07 1.87,8.07 1.87,15 0,7.02 -0.64,12.04 -1.89,15.1 -1.27,3.07 -3.3,4.59 -6.08,4.59 -2.85,0 -4.88,-1.52 -6.09,-4.59 -1.23,-3.06 -1.84,-8.08 -1.84,-15.1 z m 27.93,0 c 0,-9.98 -1.64,-17.36 -4.9,-22.14 -3.28,-4.79 -8.3,-7.19 -15.1,-7.19 -6.6,0 -11.56,2.48 -14.9,7.42 -3.36,4.94 -5.02,12.25 -5.02,21.91 0,10.08 1.62,17.5 4.89,22.29 3.24,4.78 8.26,7.17 15.03,7.17 6.59,0 11.57,-2.5 14.95,-7.5 3.36,-5 5.05,-12.33 5.05,-21.96" /><path
         id="path258"
         style="fill:#41474c;fill-opacity:1;fill-rule:nonzero;stroke:none"
         d="m 2886.5,1600.23 c 0,-7.01 0.6,-12.03 1.82,-15.05 1.21,-3.03 3.24,-4.55 6.11,-4.55 2.81,0 4.84,1.54 6.09,4.6 1.25,3.07 1.88,8.07 1.88,15 0,7.02 -0.65,12.04 -1.9,15.1 -1.27,3.07 -3.3,4.59 -6.07,4.59 -2.85,0 -4.88,-1.52 -6.1,-4.59 -1.23,-3.06 -1.83,-8.08 -1.83,-15.1 z m 27.93,0 c 0,-9.98 -1.64,-17.36 -4.9,-22.14 -3.28,-4.79 -8.3,-7.19 -15.1,-7.19 -6.6,0 -11.56,2.48 -14.9,7.42 -3.36,4.94 -5.02,12.25 -5.02,21.91 0,10.08 1.62,17.5 4.88,22.29 3.24,4.78 8.26,7.17 15.04,7.17 6.58,0 11.56,-2.5 14.94,-7.5 3.36,-5 5.06,-12.33 5.06,-21.96" /><path
         id="path260"
         style="fill:#41474c;fill-opacity:1;fill-rule:nonzero;stroke:none"
         d="m 4552.87,2537.69 c 0,1.09 -0.43,2.01 -1.33,2.77 -0.88,0.76 -2.21,1.54 -3.99,2.34 v -9.72 c 3.56,0.6 5.32,2.13 5.32,4.61 z m -15.71,23.71 c 0,-1.15 0.41,-2.09 1.19,-2.84 0.81,-0.74 2.09,-1.5 3.85,-2.28 v 9.18 c -3.36,-0.49 -5.04,-1.85 -5.04,-4.06 z m 27.46,-23.13 c 0,-4.14 -1.48,-7.46 -4.49,-9.98 -2.99,-2.51 -7.19,-4.02 -12.58,-4.51 v -8.01 h -5.35 v 7.85 c -6.35,0.13 -11.91,1.25 -16.72,3.36 v 10.31 c 2.27,-1.11 5,-2.1 8.19,-2.96 3.2,-0.86 6.03,-1.37 8.53,-1.53 v 12.11 l -2.62,1.02 c -5.15,2.03 -8.8,4.24 -10.95,6.62 -2.15,2.38 -3.22,5.33 -3.22,8.85 0,3.77 1.48,6.88 4.43,9.31 2.97,2.44 7.09,3.91 12.36,4.44 v 5.97 h 5.35 v -5.82 c 5.98,-0.26 11.37,-1.46 16.18,-3.59 l -3.68,-9.14 c -4.06,1.66 -8.22,2.68 -12.5,3.05 v -11.53 c 5.08,-1.95 8.7,-3.65 10.84,-5.08 2.15,-1.43 3.73,-3 4.73,-4.72 1.02,-1.72 1.5,-3.73 1.5,-6.02" /><path
         id="path262"
         style="fill:#41474c;fill-opacity:1;fill-rule:nonzero;stroke:none"
         d="m 4621.46,2520.42 h -12.07 v 33.05 l 0.12,5.43 0.19,5.93 c -1.99,-2 -3.4,-3.32 -4.18,-3.94 l -6.56,-5.27 -5.82,7.26 18.4,14.65 h 9.92 v -57.11" /><path
         id="path264"
         style="fill:#41474c;fill-opacity:1;fill-rule:nonzero;stroke:none"
         d="m 4648.96,2548.97 c 0,-7 0.61,-12.02 1.82,-15.05 1.21,-3.04 3.26,-4.55 6.11,-4.55 2.81,0 4.84,1.53 6.09,4.6 1.25,3.08 1.88,8.08 1.88,15 0,7.01 -0.63,12.04 -1.9,15.1 -1.25,3.06 -3.28,4.59 -6.07,4.59 -2.83,0 -4.86,-1.53 -6.09,-4.59 -1.22,-3.06 -1.84,-8.09 -1.84,-15.1 z m 27.93,0 c 0,-9.97 -1.62,-17.35 -4.9,-22.14 -3.26,-4.79 -8.3,-7.19 -15.1,-7.19 -6.58,0 -11.54,2.47 -14.9,7.42 -3.34,4.95 -5.02,12.25 -5.02,21.91 0,10.08 1.64,17.51 4.88,22.29 3.26,4.78 8.28,7.17 15.04,7.17 6.6,0 11.58,-2.5 14.94,-7.5 3.38,-5 5.06,-12.32 5.06,-21.96" /><path
         id="path266"
         style="fill:#41474c;fill-opacity:1;fill-rule:nonzero;stroke:none"
         d="m 4715.41,2548.97 c 0,-7 0.6,-12.02 1.81,-15.05 1.21,-3.04 3.26,-4.55 6.11,-4.55 2.82,0 4.85,1.53 6.1,4.6 1.25,3.08 1.87,8.08 1.87,15 0,7.01 -0.62,12.04 -1.89,15.1 -1.25,3.06 -3.28,4.59 -6.08,4.59 -2.83,0 -4.86,-1.53 -6.09,-4.59 -1.21,-3.06 -1.83,-8.09 -1.83,-15.1 z m 27.92,0 c 0,-9.97 -1.62,-17.35 -4.9,-22.14 -3.26,-4.79 -8.3,-7.19 -15.1,-7.19 -6.58,0 -11.54,2.47 -14.9,7.42 -3.34,4.95 -5.02,12.25 -5.02,21.91 0,10.08 1.64,17.51 4.89,22.29 3.26,4.78 8.28,7.17 15.03,7.17 6.61,0 11.59,-2.5 14.95,-7.5 3.38,-5 5.05,-12.32 5.05,-21.96" /><path
         id="path268"
         style="fill:#41474c;fill-opacity:1;fill-rule:nonzero;stroke:none"
         d="m 4761.07,2548.97 c 0,-7 0.6,-12.02 1.82,-15.05 1.21,-3.04 3.26,-4.55 6.11,-4.55 2.81,0 4.84,1.53 6.09,4.6 1.25,3.08 1.88,8.08 1.88,15 0,7.01 -0.63,12.04 -1.9,15.1 -1.25,3.06 -3.28,4.59 -6.07,4.59 -2.83,0 -4.86,-1.53 -6.09,-4.59 -1.22,-3.06 -1.84,-8.09 -1.84,-15.1 z m 27.93,0 c 0,-9.97 -1.62,-17.35 -4.9,-22.14 -3.27,-4.79 -8.3,-7.19 -15.1,-7.19 -6.58,0 -11.54,2.47 -14.9,7.42 -3.34,4.95 -5.02,12.25 -5.02,21.91 0,10.08 1.64,17.51 4.88,22.29 3.26,4.78 8.28,7.17 15.04,7.17 6.6,0 11.58,-2.5 14.94,-7.5 3.38,-5 5.06,-12.32 5.06,-21.96" /><path
         id="path270"
         style="fill:#41474c;fill-opacity:1;fill-rule:nonzero;stroke:none"
         d="m 4806.73,2548.97 c 0,-7 0.61,-12.02 1.82,-15.05 1.21,-3.04 3.26,-4.55 6.11,-4.55 2.82,0 4.85,1.53 6.1,4.6 1.25,3.08 1.87,8.08 1.87,15 0,7.01 -0.62,12.04 -1.89,15.1 -1.25,3.06 -3.28,4.59 -6.08,4.59 -2.83,0 -4.86,-1.53 -6.09,-4.59 -1.21,-3.06 -1.84,-8.09 -1.84,-15.1 z m 27.93,0 c 0,-9.97 -1.62,-17.35 -4.9,-22.14 -3.26,-4.79 -8.3,-7.19 -15.1,-7.19 -6.58,0 -11.54,2.47 -14.9,7.42 -3.34,4.95 -5.02,12.25 -5.02,21.91 0,10.08 1.64,17.51 4.88,22.29 3.27,4.78 8.29,7.17 15.04,7.17 6.6,0 11.59,-2.5 14.94,-7.5 3.38,-5 5.06,-12.32 5.06,-21.96" /><path
         id="path272"
         style="fill:#41474c;fill-opacity:1;fill-rule:nonzero;stroke:none"
         d="m 634.906,115 h -6.328 v 40.699 c 0,3.379 0.11,6.59 0.313,9.61 -0.547,-0.539 -1.161,-1.118 -1.836,-1.719 -0.672,-0.602 -3.778,-3.141 -9.297,-7.61 l -3.438,4.45 15.118,11.679 h 5.468 V 115" /><path
         id="path274"
         style="fill:#41474c;fill-opacity:1;fill-rule:nonzero;stroke:none"
         d="m 1118.42,115 h -37.54 v 5.59 l 15.04,15.109 c 4.58,4.629 7.61,7.942 9.07,9.93 1.45,1.973 2.54,3.902 3.28,5.781 0.73,1.871 1.09,3.879 1.09,6.051 0,3.051 -0.93,5.461 -2.77,7.25 -1.85,1.769 -4.42,2.668 -7.7,2.668 -2.37,0 -4.62,-0.391 -6.74,-1.168 -2.12,-0.781 -4.48,-2.211 -7.09,-4.262 l -3.43,4.422 c 5.26,4.367 10.98,6.559 17.18,6.559 5.36,0 9.57,-1.379 12.62,-4.121 3.05,-2.758 4.57,-6.45 4.57,-11.079 0,-3.621 -1.01,-7.199 -3.05,-10.742 -2.03,-3.539 -5.83,-8.027 -11.4,-13.437 l -12.5,-12.219 v -0.312 h 29.37 V 115" /><path
         id="path276"
         style="fill:#41474c;fill-opacity:1;fill-rule:nonzero;stroke:none"
         d="m 24.1797,115 -13.75,44.801 h -0.3516 c 0.5,-9.121 0.7422,-15.192 0.7422,-18.242 l 0,-26.559 H 0 v 57.109 H 16.4844 L 30,128.441 h 0.2344 l 14.3359,43.668 H 61.0547 V 115 H 49.7656 v 27.031 c 0,1.27 0.0196,2.75 0.0586,4.418 0.0391,1.66 0.2149,6.09 0.5274,13.281 L 50,159.73 35.2734,115 H 24.1797" /><path
         id="path278"
         style="fill:#41474c;fill-opacity:1;fill-rule:nonzero;stroke:none"
         d="m 83.9844,136.91 c 0,-4.32 0.7148,-7.59 2.1289,-9.801 1.418,-2.218 3.7305,-3.32 6.9336,-3.32 3.1758,0 5.4609,1.09 6.8554,3.301 1.3987,2.199 2.0897,5.469 2.0897,9.82 0,4.32 -0.703,7.559 -2.1092,9.731 -1.4062,2.16 -3.7109,3.238 -6.914,3.238 -3.1758,0 -5.4688,-1.07 -6.875,-3.219 -1.4063,-2.148 -2.1094,-5.398 -2.1094,-9.75 z m 30.1956,0 c 0,-7.109 -1.875,-12.672 -5.625,-16.68 -3.75,-4.011 -8.973,-6.011 -15.6644,-6.011 -4.1875,0 -7.8906,0.922 -11.0937,2.75 -3.2031,1.84 -5.6641,4.48 -7.3828,7.91 -1.7188,3.441 -2.5782,7.441 -2.5782,12.031 0,7.129 1.8672,12.68 5.586,16.641 3.7226,3.961 8.957,5.937 15.7031,5.937 4.1914,0 7.891,-0.918 11.094,-2.726 3.203,-1.832 5.664,-4.453 7.383,-7.852 1.718,-3.422 2.578,-7.422 2.578,-12" /><path
         id="path280"
         style="fill:#41474c;fill-opacity:1;fill-rule:nonzero;stroke:none"
         d="m 164.336,115 h -11.914 v 25.512 c 0,3.136 -0.559,5.508 -1.68,7.09 -1.125,1.57 -2.898,2.359 -5.351,2.359 -3.328,0 -5.743,-1.109 -7.227,-3.34 -1.484,-2.23 -2.226,-5.922 -2.226,-11.07 V 115 h -11.915 v 43.672 h 9.102 l 1.602,-5.582 h 0.664 c 1.328,2.109 3.156,3.699 5.488,4.781 2.336,1.078 4.98,1.617 7.949,1.617 5.078,0 8.938,-1.367 11.563,-4.117 2.629,-2.75 3.945,-6.723 3.945,-11.891 V 115" /><path
         id="path282"
         style="fill:#41474c;fill-opacity:1;fill-rule:nonzero;stroke:none"
         d="m 195,123.711 c 2.078,0 4.578,0.449 7.5,1.371 v -8.871 c -2.969,-1.332 -6.609,-1.992 -10.937,-1.992 -4.766,0 -8.235,1.203 -10.411,3.609 -2.175,2.402 -3.261,6.024 -3.261,10.844 v 21.058 h -5.703 v 5.04 l 6.562,3.98 3.438,9.219 h 7.617 v -9.297 h 12.226 v -8.942 h -12.226 v -21.058 c 0,-1.703 0.476,-2.953 1.425,-3.75 0.95,-0.813 2.208,-1.211 3.77,-1.211" /><path
         id="path284"
         style="fill:#41474c;fill-opacity:1;fill-rule:nonzero;stroke:none"
         d="m 251.641,115 h -11.914 v 25.512 c 0,6.297 -2.344,9.449 -7.032,9.449 -3.332,0 -5.742,-1.129 -7.226,-3.402 -1.485,-2.258 -2.227,-5.93 -2.227,-11.008 V 115 h -11.914 v 60.781 h 11.914 v -12.383 c 0,-0.968 -0.09,-3.226 -0.273,-6.796 l -0.274,-3.512 h 0.625 c 2.657,4.262 6.875,6.398 12.657,6.398 5.128,0 9.023,-1.379 11.679,-4.136 2.657,-2.762 3.985,-6.723 3.985,-11.872 V 115" /><path
         id="path286"
         style="fill:#41474c;fill-opacity:1;fill-rule:nonzero;stroke:none"
         d="m 262.227,120.59 c 0,2.18 0.586,3.832 1.757,4.961 1.172,1.109 2.879,1.679 5.118,1.679 2.16,0 3.836,-0.582 5.019,-1.718 1.184,-1.153 1.777,-2.801 1.777,-4.922 0,-2.059 -0.593,-3.692 -1.796,-4.871 -1.204,-1.188 -2.864,-1.77 -5,-1.77 -2.188,0 -3.875,0.571 -5.079,1.731 -1.203,1.16 -1.796,2.8 -1.796,4.91 z m 0,32.262 c 0,2.187 0.586,3.839 1.757,4.957 1.172,1.121 2.879,1.679 5.118,1.679 2.16,0 3.836,-0.566 5.019,-1.718 1.184,-1.149 1.777,-2.79 1.777,-4.918 0,-2.114 -0.605,-3.75 -1.816,-4.903 -1.211,-1.16 -2.871,-1.738 -4.98,-1.738 -2.188,0 -3.875,0.57 -5.079,1.719 -1.203,1.14 -1.796,2.781 -1.796,4.922" /><path
         id="path288"
         style="fill:#41474c;fill-opacity:1;fill-rule:nonzero;stroke:none"
         d="m 1600.74,158.672 c 0,-3.652 -1.03,-6.633 -3.07,-8.942 -2.04,-2.332 -4.94,-3.871 -8.69,-4.648 v -0.312 c 4.58,-0.579 7.98,-2.04 10.19,-4.379 2.22,-2.34 3.33,-5.422 3.33,-9.219 0,-5.453 -1.89,-9.633 -5.67,-12.563 -3.78,-2.929 -9.14,-4.39 -16.09,-4.39 -3.02,0 -5.79,0.222 -8.3,0.679 -2.51,0.454 -4.95,1.25 -7.33,2.403 v 6.179 c 2.47,-1.23 5.11,-2.16 7.91,-2.8 2.81,-0.641 5.45,-0.95 7.95,-0.95 9.87,0 14.81,3.86 14.81,11.602 0,6.918 -5.44,10.387 -16.33,10.387 h -5.63 v 5.582 h 5.71 c 4.45,0 7.97,0.98 10.58,2.949 2.61,1.969 3.91,4.691 3.91,8.191 0,2.778 -0.96,4.969 -2.87,6.559 -1.92,1.578 -4.51,2.379 -7.8,2.379 -2.5,0 -4.85,-0.34 -7.07,-1.008 -2.21,-0.691 -4.73,-1.941 -7.57,-3.75 l -3.29,4.367 c 2.35,1.852 5.05,3.301 8.11,4.364 3.06,1.046 6.28,1.578 9.67,1.578 5.55,0 9.85,-1.27 12.93,-3.809 3.07,-2.543 4.61,-6.019 4.61,-10.449" /><path
         id="path290"
         style="fill:#41474c;fill-opacity:1;fill-rule:nonzero;stroke:none"
         d="m 2076.72,134.02 v 18.992 c 0,3.718 0.13,7.929 0.39,12.617 h -0.31 c -1.25,-2.5 -2.42,-4.578 -3.51,-6.219 l -17.86,-25.39 z m 14.69,-5.891 h -8.48 V 115 h -6.21 v 13.129 h -27.77 v 5.66 l 27.11,38.633 h 6.87 V 134.02 h 8.48 v -5.891" /><path
         id="path292"
         style="fill:#41474c;fill-opacity:1;fill-rule:nonzero;stroke:none"
         d="m 2539.03,149.879 c 6.01,0 10.75,-1.488 14.2,-4.469 3.44,-2.988 5.17,-7.07 5.17,-12.25 0,-5.91 -1.88,-10.539 -5.64,-13.898 -3.76,-3.364 -8.96,-5.043 -15.57,-5.043 -6.43,0 -11.34,1.019 -14.72,3.082 v 6.25 c 1.82,-1.172 4.09,-2.09 6.79,-2.75 2.71,-0.66 5.38,-1 8.01,-1 4.58,0 8.15,1.078 10.68,3.25 2.54,2.16 3.81,5.277 3.81,9.371 0,7.969 -4.88,11.957 -14.65,11.957 -2.47,0 -5.78,-0.391 -9.92,-1.141 l -3.36,2.153 2.15,26.718 h 28.4 v -5.98 h -22.85 l -1.45,-17.149 c 3,0.598 5.98,0.899 8.95,0.899" /><path
         id="path294"
         style="fill:#41474c;fill-opacity:1;fill-rule:nonzero;stroke:none"
         d="m 3015.73,119.73 c 3.7,0 6.57,1.161 8.61,3.489 2.04,2.332 3.07,5.703 3.07,10.101 0,3.77 -0.95,6.739 -2.85,8.91 -1.91,2.149 -4.74,3.239 -8.52,3.239 -2.34,0 -4.49,-0.489 -6.45,-1.449 -1.95,-0.961 -3.5,-2.29 -4.66,-3.981 -1.17,-1.699 -1.74,-3.461 -1.74,-5.269 0,-2.692 0.52,-5.192 1.56,-7.5 1.05,-2.329 2.52,-4.161 4.43,-5.508 1.92,-1.364 4.1,-2.032 6.55,-2.032 z m -19.18,19.68 c 0,11.219 2.18,19.61 6.54,25.18 4.37,5.558 10.81,8.34 19.36,8.34 2.94,0 5.26,-0.25 6.95,-0.739 v -5.589 c -2,0.648 -4.3,0.98 -6.88,0.98 -6.12,0 -10.79,-1.922 -14.02,-5.723 -3.23,-3.82 -5,-9.82 -5.31,-17.988 h 0.47 c 2.86,4.469 7.39,6.719 13.59,6.719 5.13,0 9.17,-1.559 12.13,-4.649 2.96,-3.113 4.43,-7.312 4.43,-12.621 0,-5.941 -1.62,-10.609 -4.86,-14 -3.24,-3.398 -7.63,-5.101 -13.14,-5.101 -5.91,0 -10.6,2.222 -14.07,6.66 -3.46,4.43 -5.19,10.609 -5.19,18.531" /><path
         id="path296"
         style="fill:#41474c;fill-opacity:1;fill-rule:nonzero;stroke:none"
         d="m 3482.28,115 23.67,51.129 h -31.13 v 5.98 h 38.01 V 166.91 L 3489.47,115 h -7.19" /><path
         id="path298"
         style="fill:#41474c;fill-opacity:1;fill-rule:nonzero;stroke:none"
         d="m 3978.88,167.66 c -3.25,0 -5.81,-0.781 -7.65,-2.351 -1.85,-1.559 -2.78,-3.649 -2.78,-6.25 0,-2.399 0.77,-4.45 2.31,-6.168 1.53,-1.719 4.37,-3.442 8.51,-5.161 3.72,1.571 6.36,3.25 7.91,5.04 1.56,1.8 2.33,3.89 2.33,6.289 0,2.632 -0.95,4.722 -2.84,6.269 -1.88,1.551 -4.48,2.332 -7.79,2.332 z m -12.26,-38.25 c 0,-3.121 1.08,-5.558 3.26,-7.301 2.18,-1.75 5.22,-2.621 9.16,-2.621 3.88,0 6.9,0.91 9.06,2.742 2.16,1.809 3.24,4.309 3.24,7.5 0,2.52 -1.01,4.758 -3.04,6.731 -2.04,1.969 -5.58,3.867 -10.63,5.73 -3.88,-1.671 -6.69,-3.519 -8.44,-5.531 -1.74,-2.019 -2.61,-4.43 -2.61,-7.25 z m 12.34,43.52 c 5.21,0 9.34,-1.211 12.38,-3.629 3.05,-2.422 4.57,-5.77 4.57,-10.039 0,-2.813 -0.87,-5.383 -2.61,-7.703 -1.75,-2.321 -4.54,-4.43 -8.36,-6.329 4.64,-2.21 7.93,-4.539 9.88,-6.968 1.95,-2.442 2.93,-5.25 2.93,-8.461 0,-4.742 -1.65,-8.52 -4.96,-11.34 -3.31,-2.832 -7.84,-4.242 -13.6,-4.242 -6.09,0 -10.78,1.332 -14.06,4 -3.28,2.672 -4.92,6.453 -4.92,11.351 0,6.532 3.98,11.621 11.95,15.27 -3.59,2.039 -6.17,4.219 -7.73,6.59 -1.56,2.351 -2.35,4.992 -2.35,7.91 0,4.14 1.54,7.441 4.59,9.898 3.06,2.461 7.16,3.692 12.29,3.692" /><path
         id="path300"
         style="fill:#41474c;fill-opacity:1;fill-rule:nonzero;stroke:none"
         d="m 4458.37,167.379 c -3.72,0 -6.6,-1.199 -8.63,-3.59 -2.03,-2.398 -3.05,-5.73 -3.05,-10 0,-3.75 0.94,-6.699 2.82,-8.848 1.87,-2.152 4.72,-3.222 8.55,-3.222 2.37,0 4.55,0.48 6.54,1.441 2,0.961 3.57,2.281 4.71,3.949 1.14,1.661 1.72,3.411 1.72,5.231 0,2.742 -0.54,5.262 -1.6,7.582 -1.07,2.316 -2.56,4.137 -4.47,5.469 -1.92,1.328 -4.12,1.988 -6.59,1.988 z m 19.22,-19.649 c 0,-22.339 -8.64,-33.511 -25.93,-33.511 -3.02,0 -5.42,0.25 -7.19,0.781 v 5.59 c 2.08,-0.692 4.45,-1.02 7.11,-1.02 6.25,0 10.96,1.93 14.16,5.801 3.19,3.867 4.93,9.801 5.21,17.789 h -0.47 c -1.43,-2.16 -3.33,-3.801 -5.7,-4.941 -2.37,-1.129 -5.04,-1.699 -8.01,-1.699 -5.05,0 -9.06,1.511 -12.03,4.531 -2.97,3.019 -4.45,7.238 -4.45,12.66 0,5.937 1.66,10.629 4.98,14.059 3.32,3.441 7.68,5.16 13.1,5.16 3.88,0 7.28,-1 10.18,-2.989 2.9,-1.992 5.14,-4.902 6.7,-8.711 1.56,-3.82 2.34,-8.32 2.34,-13.5" /><path
         id="path302"
         style="fill:#41474c;fill-opacity:1;fill-rule:nonzero;stroke:none"
         d="m 4915.74,115 h -6.33 v 40.699 c 0,3.379 0.11,6.59 0.31,9.61 -0.55,-0.539 -1.16,-1.118 -1.83,-1.719 -0.68,-0.602 -3.78,-3.141 -9.3,-7.61 l -3.44,4.45 15.12,11.679 h 5.47 V 115" /><path
         id="path304"
         style="fill:#41474c;fill-opacity:1;fill-rule:nonzero;stroke:none"
         d="m 4944.1,143.629 c 0,-8.309 0.97,-14.348 2.93,-18.141 1.95,-3.789 5.06,-5.687 9.33,-5.687 4.33,0 7.45,1.918 9.4,5.769 1.94,3.828 2.91,9.86 2.91,18.059 0,8.211 -0.97,14.211 -2.91,18.031 -1.95,3.809 -5.07,5.719 -9.4,5.719 -4.27,0 -7.38,-1.879 -9.33,-5.641 -1.96,-3.769 -2.93,-9.808 -2.93,-18.109 z m 31.21,0 c 0,-9.867 -1.56,-17.238 -4.67,-22.109 -3.12,-4.872 -7.87,-7.301 -14.28,-7.301 -6.14,0 -10.82,2.492 -14.02,7.48 -3.2,4.981 -4.81,12.289 -4.81,21.93 0,9.941 1.56,17.332 4.65,22.152 3.1,4.821 7.82,7.231 14.18,7.231 6.2,0 10.91,-2.524 14.12,-7.543 3.22,-5.028 4.83,-12.309 4.83,-21.84" /><path
         id="path306"
         style="fill:#41474c;fill-opacity:1;fill-rule:nonzero;stroke:none"
         d="m 5400.74,115 h -6.33 v 40.699 c 0,3.379 0.11,6.59 0.31,9.61 -0.55,-0.539 -1.16,-1.118 -1.83,-1.719 -0.68,-0.602 -3.78,-3.141 -9.3,-7.61 l -3.44,4.45 15.12,11.679 h 5.47 V 115" /><path
         id="path308"
         style="fill:#41474c;fill-opacity:1;fill-rule:nonzero;stroke:none"
         d="m 5446.48,115 h -6.33 v 40.699 c 0,3.379 0.11,6.59 0.31,9.61 -0.54,-0.539 -1.16,-1.118 -1.83,-1.719 -0.68,-0.602 -3.78,-3.141 -9.3,-7.61 l -3.44,4.45 15.12,11.679 h 5.47 V 115" /><path
         id="path310"
         style="fill:#41474c;fill-opacity:1;fill-rule:nonzero;stroke:none"
         d="m 5873.24,115 h -6.33 v 40.699 c 0,3.379 0.11,6.59 0.31,9.61 -0.55,-0.539 -1.16,-1.118 -1.83,-1.719 -0.68,-0.602 -3.78,-3.141 -9.3,-7.61 l -3.44,4.45 15.12,11.679 h 5.47 V 115" /><path
         id="path312"
         style="fill:#41474c;fill-opacity:1;fill-rule:nonzero;stroke:none"
         d="m 5932.5,115 h -37.54 v 5.59 l 15.04,15.109 c 4.58,4.629 7.6,7.942 9.06,9.93 1.45,1.973 2.55,3.902 3.28,5.781 0.73,1.871 1.09,3.879 1.09,6.051 0,3.051 -0.93,5.461 -2.77,7.25 -1.85,1.769 -4.41,2.668 -7.7,2.668 -2.37,0 -4.62,-0.391 -6.73,-1.168 -2.12,-0.781 -4.49,-2.211 -7.09,-4.262 l -3.44,4.422 c 5.26,4.367 10.98,6.559 17.19,6.559 5.36,0 9.57,-1.379 12.61,-4.121 3.05,-2.758 4.57,-6.45 4.57,-11.079 0,-3.621 -1.01,-7.199 -3.04,-10.742 -2.03,-3.539 -5.83,-8.027 -11.41,-13.437 l -12.5,-12.219 v -0.312 h 29.38 V 115" /><path
         id="path314"
         style="fill:none;stroke:#100f0d;stroke-width:5;stroke-linecap:butt;stroke-linejoin:miter;stroke-miterlimit:10;stroke-dasharray:none;stroke-opacity:1"
         d="m 5897.81,560.84 h -92.5" /><path
         id="path316"
         style="fill:none;stroke:#100f0d;stroke-width:5;stroke-linecap:butt;stroke-linejoin:miter;stroke-miterlimit:10;stroke-dasharray:none;stroke-opacity:1"
         d="m 5897.81,1034.17 h -92.5" /><path
         id="path318"
         style="fill:none;stroke:#100f0d;stroke-width:5;stroke-linecap:butt;stroke-linejoin:miter;stroke-miterlimit:10;stroke-dasharray:none;stroke-opacity:1"
         d="m 5897.81,1515.84 h -92.5" /><path
         id="path320"
         style="fill:none;stroke:#100f0d;stroke-width:5;stroke-linecap:butt;stroke-linejoin:miter;stroke-miterlimit:10;stroke-dasharray:none;stroke-opacity:1"
         d="m 5897.81,1997.5 h -92.5" /><path
         id="path322"
         style="fill:none;stroke:#100f0d;stroke-width:5;stroke-linecap:butt;stroke-linejoin:miter;stroke-miterlimit:10;stroke-dasharray:none;stroke-opacity:1"
         d="m 5897.81,2471.25 h -92.5" /><path
         id="path324"
         style="fill:none;stroke:#100f0d;stroke-width:5;stroke-linecap:butt;stroke-linejoin:miter;stroke-miterlimit:10;stroke-dasharray:none;stroke-opacity:1"
         d="m 5897.81,2950.84 h -92.5" /><path
         id="path326"
         style="fill:none;stroke:#100f0d;stroke-width:5;stroke-linecap:butt;stroke-linejoin:miter;stroke-miterlimit:10;stroke-dasharray:none;stroke-opacity:1"
         d="m 5897.81,3431.25 h -92.5" /><path
         id="path328"
         style="fill:none;stroke:#100f0d;stroke-width:5;stroke-linecap:butt;stroke-linejoin:miter;stroke-miterlimit:10;stroke-dasharray:none;stroke-opacity:1"
         d="M 5893.65,247.922 V 321.25" /><path
         id="path330"
         style="fill:none;stroke:#100f0d;stroke-width:5;stroke-linecap:butt;stroke-linejoin:miter;stroke-miterlimit:10;stroke-dasharray:none;stroke-opacity:1"
         d="M 5419.91,247.922 V 321.25" /><path
         id="path332"
         style="fill:none;stroke:#100f0d;stroke-width:5;stroke-linecap:butt;stroke-linejoin:miter;stroke-miterlimit:10;stroke-dasharray:none;stroke-opacity:1"
         d="M 4938.24,247.922 V 321.25" /><path
         id="path334"
         style="fill:none;stroke:#100f0d;stroke-width:5;stroke-linecap:butt;stroke-linejoin:miter;stroke-miterlimit:10;stroke-dasharray:none;stroke-opacity:1"
         d="M 4456.57,247.922 V 321.25" /><path
         id="path336"
         style="fill:none;stroke:#100f0d;stroke-width:5;stroke-linecap:butt;stroke-linejoin:miter;stroke-miterlimit:10;stroke-dasharray:none;stroke-opacity:1"
         d="M 3983.24,247.922 V 321.25" /><path
         id="path338"
         style="fill:none;stroke:#100f0d;stroke-width:5;stroke-linecap:butt;stroke-linejoin:miter;stroke-miterlimit:10;stroke-dasharray:none;stroke-opacity:1"
         d="M 3501.15,247.922 V 321.25" /><path
         id="path340"
         style="fill:none;stroke:#100f0d;stroke-width:5;stroke-linecap:butt;stroke-linejoin:miter;stroke-miterlimit:10;stroke-dasharray:none;stroke-opacity:1"
         d="M 3020.74,247.922 V 321.25" /><path
         id="path342"
         style="fill:none;stroke:#100f0d;stroke-width:5;stroke-linecap:butt;stroke-linejoin:miter;stroke-miterlimit:10;stroke-dasharray:none;stroke-opacity:1"
         d="M 2541.15,247.922 V 321.25" /><path
         id="path344"
         style="fill:none;stroke:#100f0d;stroke-width:5;stroke-linecap:butt;stroke-linejoin:miter;stroke-miterlimit:10;stroke-dasharray:none;stroke-opacity:1"
         d="M 2066.44,247.922 V 321.25" /><path
         id="path346"
         style="fill:none;stroke:#100f0d;stroke-width:5;stroke-linecap:butt;stroke-linejoin:miter;stroke-miterlimit:10;stroke-dasharray:none;stroke-opacity:1"
         d="M 1585.74,247.922 V 321.25" /><path
         id="path348"
         style="fill:none;stroke:#100f0d;stroke-width:5;stroke-linecap:butt;stroke-linejoin:miter;stroke-miterlimit:10;stroke-dasharray:none;stroke-opacity:1"
         d="M 1106.15,247.922 V 321.25" /><path
         id="path350"
         style="fill:none;stroke:#100f0d;stroke-width:5;stroke-linecap:butt;stroke-linejoin:miter;stroke-miterlimit:10;stroke-dasharray:none;stroke-opacity:1"
         d="M 636.148,247.922 V 321.25" /></g></g></svg>